<svg width="36" height="35" viewBox="0 0 36 35" fill="none" xmlns="http://www.w3.org/2000/svg">
<rect x="0.5" width="35" height="35" rx="17.5" fill="#E7FFE8"/>
<path d="M6.5 22C6.5 21.4477 6.77552 21 7.11538 21H29.8846C30.2245 21 30.5 21.4477 30.5 22V22C30.5 22.5523 30.2245 23 29.8846 23H7.11538C6.77552 23 6.5 22.5523 6.5 22V22Z" fill="#8D8D8D"/>
<path d="M29.5 21C29.5 17.8174 28.3411 14.7652 26.2782 12.5147C24.2153 10.2643 21.4174 9 18.5 9C15.5826 9 12.7847 10.2643 10.7218 12.5147C8.65893 14.7652 7.5 17.8174 7.5 21L18.5 21H29.5Z" fill="#1EB16C"/>
<path d="M19.4213 8.99947C19.4213 9.52665 19.0078 9.95401 18.4978 9.95401C17.9877 9.95401 17.5742 9.52665 17.5742 8.99947C17.5742 8.47229 17.9877 8.04492 18.4978 8.04492C19.0078 8.04492 19.4213 8.47229 19.4213 8.99947ZM18.0588 8.99947C18.0588 9.25005 18.2553 9.45319 18.4978 9.45319C18.7402 9.45319 18.9368 9.25005 18.9368 8.99947C18.9368 8.74889 19 8.54575 18.4978 8.54575C17.9955 8.54575 18.0588 8.74889 18.0588 8.99947Z" fill="#1EB16C"/>
</svg>
