<svg width="36" height="35" viewBox="0 0 36 35" fill="none" xmlns="http://www.w3.org/2000/svg">
<rect x="0.5" width="35" height="35" rx="17.5" fill="#E7FFE8"/>
<path d="M15 20.5H16V24.5H15V20.5Z" fill="#8D8D8D"/>
<path d="M20 20.5H21V24.5H20V20.5Z" fill="#8D8D8D"/>
<path d="M26 13.5C26 17.9183 22.4183 21.5 18 21.5C13.5817 21.5 10 17.9183 10 13.5C10 9.08172 13.5817 5.5 18 5.5C22.4183 5.5 26 9.08172 26 13.5Z" fill="#1EB16C"/>
<path d="M21 13.5C21 17.9183 19.6569 21.5 18 21.5C16.3431 21.5 15 17.9183 15 13.5C15 9.08172 16.3431 5.5 18 5.5C19.6569 5.5 21 9.08172 21 13.5Z" fill="#1FC376"/>
<path d="M14 24.5C14 23.9477 14.4477 23.5 15 23.5H21C21.5523 23.5 22 23.9477 22 24.5V28.5C22 29.0523 21.5523 29.5 21 29.5H15C14.4477 29.5 14 29.0523 14 28.5V24.5Z" fill="#1EB16C"/>
</svg>
