<svg width="35" height="35" viewBox="0 0 35 35" fill="none" xmlns="http://www.w3.org/2000/svg">
<rect width="35" height="35" rx="17.5" fill="#E7FFE8"/>
<path d="M11 11C11 10.4477 11.4477 10 12 10V10C12.5523 10 13 10.4477 13 11V29C13 29.5523 12.5523 30 12 30V30C11.4477 30 11 29.5523 11 29V11Z" fill="#8D8D8D"/>
<path d="M26.377 17.1164C26.377 17.3768 26.2936 17.5799 26.127 17.7257C25.9603 17.8716 25.7259 17.9445 25.4238 17.9445H11.8613C11.1165 17.9445 10.5566 17.7596 10.1816 17.3898C9.80664 17.02 9.61914 16.4679 9.61914 15.7335V9.62416C9.61914 8.88979 9.80664 8.3377 10.1816 7.96791C10.5566 7.59812 11.1165 7.41323 11.8613 7.41323L25.4238 7.41323C25.7259 7.41323 25.9603 7.48614 26.127 7.63198C26.2936 7.77781 26.377 7.98093 26.377 8.24135C26.377 8.43406 26.3118 8.61375 26.1816 8.78041C26.0514 8.94187 25.8171 9.19968 25.4785 9.55385L22.4707 12.6085C22.4186 12.6554 22.4186 12.7023 22.4707 12.7492L25.4785 15.8039C25.8223 16.158 26.0566 16.4184 26.1816 16.5851C26.3118 16.7518 26.377 16.9289 26.377 17.1164Z" fill="#1EB16C"/>
</svg>
