<svg width="65" height="64" viewBox="0 0 65 64" fill="none" xmlns="http://www.w3.org/2000/svg">
<path d="M17.2017 29.4395V22.1641C17.2017 21.0003 17.515 20.1092 18.1416 19.4907C18.7682 18.8641 19.6634 18.5508 20.8271 18.5508H44.5088C45.6807 18.5508 46.5758 18.8641 47.1943 19.4907C47.821 20.1092 48.1343 21.0003 48.1343 22.1641V29.4395C48.1343 29.7568 48.0407 30.0091 47.8535 30.1963C47.6663 30.3835 47.4141 30.4771 47.0967 30.4771H46.3643C46.055 30.4771 45.8027 30.3835 45.6074 30.1963C45.4202 30.0091 45.3267 29.7568 45.3267 29.4395V27.6328C45.2616 27.6491 45.1436 27.6654 44.9727 27.6816C44.8018 27.6898 44.6431 27.6938 44.4966 27.6938H20.8394C20.6929 27.6938 20.5342 27.6898 20.3633 27.6816C20.2005 27.6654 20.0825 27.6491 20.0093 27.6328V29.4395C20.0093 29.7568 19.9116 30.0091 19.7163 30.1963C19.5291 30.3835 19.2809 30.4771 18.9717 30.4771H18.2393C17.9219 30.4771 17.6696 30.3835 17.4824 30.1963C17.2952 30.0091 17.2017 29.7568 17.2017 29.4395ZM20.1313 16.8052V13.3018C20.1313 12.1706 20.4243 11.3201 21.0103 10.7505C21.5962 10.1727 22.4385 9.88379 23.5371 9.88379H41.8232C42.9137 9.88379 43.752 10.1727 44.3379 10.7505C44.932 11.3201 45.229 12.1706 45.229 13.3018V16.8052H42.1162V15.0474C42.1162 14.4777 41.9575 14.0423 41.6401 13.7412C41.3309 13.4401 40.8711 13.2896 40.2607 13.2896H35.9883C35.3779 13.2896 34.9141 13.4401 34.5967 13.7412C34.2874 14.0423 34.1328 14.4777 34.1328 15.0474V16.8052H31.3618V15.0474C31.3618 14.4777 31.2072 14.0423 30.8979 13.7412C30.5968 13.4401 30.1574 13.2896 29.5796 13.2896H25.0264C24.4486 13.2896 24.005 13.4401 23.6958 13.7412C23.3866 14.0423 23.2319 14.4777 23.2319 15.0474V16.8052H20.1313Z" fill="#707070"/>
<g filter="url(#filter0_d_1738_4427)">
<path d="M27.6533 46.3389C27.6533 46.7832 27.8353 47.2127 28.1992 47.6274C28.5632 48.0422 29.0498 48.3976 29.6592 48.6938C30.2728 48.9901 30.9414 49.1868 31.665 49.2842L31.1953 50.2236C30.2728 50.084 29.4391 49.8026 28.6943 49.3794C27.9538 48.9562 27.4036 48.4399 27.0439 47.8306C26.68 48.4399 26.1257 48.9562 25.3809 49.3794C24.6361 49.8026 23.8024 50.084 22.8799 50.2236L22.4229 49.2842C23.1423 49.1868 23.8066 48.9922 24.416 48.7002C25.0296 48.404 25.5163 48.0485 25.876 47.6338C26.2399 47.2191 26.4219 46.7874 26.4219 46.3389V45.8564H27.6533V46.3389ZM21.8516 51.0234H32.2236V52.001H27.6279V53.3467H30.9541V57.0791H29.7354V54.3115H23.0068V53.3467H26.4346V52.001H21.8516V51.0234ZM42.0244 48.6113H43.6748V49.6016H42.0244V52.5596H40.8184V45.7041H42.0244V48.6113ZM33.5312 46.415H34.7119V48.1162H37.6953V46.415H38.8887V51.8359H33.5312V46.415ZM34.5088 53.1309H42.0244V57.0791H40.8184V54.1084H34.5088V53.1309ZM37.6953 50.8711V49.0684H34.7119V50.8711H37.6953Z" fill="#707070"/>
</g>
<defs>
<filter id="filter0_d_1738_4427" x="18.8516" y="42.7031" width="27.8242" height="17.375" filterUnits="userSpaceOnUse" color-interpolation-filters="sRGB">
<feFlood flood-opacity="0" result="BackgroundImageFix"/>
<feColorMatrix in="SourceAlpha" type="matrix" values="0 0 0 0 0 0 0 0 0 0 0 0 0 0 0 0 0 0 127 0" result="hardAlpha"/>
<feOffset/>
<feGaussianBlur stdDeviation="1.5"/>
<feComposite in2="hardAlpha" operator="out"/>
<feColorMatrix type="matrix" values="0 0 0 0 0 0 0 0 0 0 0 0 0 0 0 0 0 0 0.1 0"/>
<feBlend mode="normal" in2="BackgroundImageFix" result="effect1_dropShadow_1738_4427"/>
<feBlend mode="normal" in="SourceGraphic" in2="effect1_dropShadow_1738_4427" result="shape"/>
</filter>
</defs>
</svg>
