<svg width="393" height="300" viewBox="0 0 393 300" fill="none" xmlns="http://www.w3.org/2000/svg">
<rect width="393" height="300" transform="translate(0 0.00195312)" fill="#F1F1F1"/>
<path d="M153.979 135.715H220.993C224.436 135.715 227.227 138.197 227.227 141.258V149.573H153.979V135.715Z" fill="#B3B3B3"/>
<path d="M153.979 113.941H190.2L191.593 135.718H153.979V113.941Z" fill="#B3B3B3"/>
<path d="M209.41 127.799H221.289V137.698H209.41V127.799Z" fill="#B3B3B3"/>
<rect x="152" y="108.002" width="41.5735" height="9.89846" rx="3" fill="#B3B3B3"/>
<rect x="207.43" y="119.881" width="15.8382" height="9.89885" rx="3" fill="#B3B3B3"/>
<path d="M153.979 149.576H227.644C231.972 149.576 234.376 153.29 236.396 158.485L237.126 161.454H153.979V149.576Z" fill="#B3B3B3"/>
<rect x="152" y="159.471" width="87.1064" height="7.91877" rx="3" fill="#B3B3B3"/>
<path d="M185.096 165.298C185.096 172.329 179.396 178.03 172.364 178.03C165.333 178.03 159.633 172.329 159.633 165.298C159.633 158.267 165.333 152.566 172.364 152.566C179.396 152.566 185.096 158.267 185.096 165.298Z" fill="#B3B3B3"/>
<path fill-rule="evenodd" clip-rule="evenodd" d="M172.364 175.483C177.99 175.483 182.55 170.923 182.55 165.298C182.55 159.673 177.99 155.113 172.364 155.113C166.739 155.113 162.179 159.673 162.179 165.298C162.179 170.923 166.739 175.483 172.364 175.483ZM172.364 178.03C179.396 178.03 185.096 172.329 185.096 165.298C185.096 158.267 179.396 152.566 172.364 152.566C165.333 152.566 159.633 158.267 159.633 165.298C159.633 172.329 165.333 178.03 172.364 178.03Z" fill="#B3B3B3"/>
<path d="M176.188 165.3C176.188 167.41 174.478 169.12 172.369 169.12C170.259 169.12 168.549 167.41 168.549 165.3C168.549 163.191 170.259 161.48 172.369 161.48C174.478 161.48 176.188 163.191 176.188 165.3Z" fill="#B3B3B3"/>
<path fill-rule="evenodd" clip-rule="evenodd" d="M172.369 167.21C173.423 167.21 174.278 166.355 174.278 165.3C174.278 164.245 173.423 163.39 172.369 163.39C171.314 163.39 170.459 164.245 170.459 165.3C170.459 166.355 171.314 167.21 172.369 167.21ZM172.369 169.12C174.478 169.12 176.188 167.41 176.188 165.3C176.188 163.191 174.478 161.48 172.369 161.48C170.259 161.48 168.549 163.191 168.549 165.3C168.549 167.41 170.259 169.12 172.369 169.12Z" fill="#B3B3B3"/>
<path d="M232.897 166.271C232.897 173.302 227.197 179.002 220.165 179.002C213.134 179.002 207.434 173.302 207.434 166.271C207.434 159.239 213.134 153.539 220.165 153.539C227.197 153.539 232.897 159.239 232.897 166.271Z" fill="#B3B3B3"/>
<path fill-rule="evenodd" clip-rule="evenodd" d="M220.165 176.456C225.79 176.456 230.35 171.896 230.35 166.271C230.35 160.645 225.79 156.085 220.165 156.085C214.54 156.085 209.98 160.645 209.98 166.271C209.98 171.896 214.54 176.456 220.165 176.456ZM220.165 179.002C227.197 179.002 232.897 173.302 232.897 166.271C232.897 159.239 227.197 153.539 220.165 153.539C213.134 153.539 207.434 159.239 207.434 166.271C207.434 173.302 213.134 179.002 220.165 179.002Z" fill="#B3B3B3"/>
<path d="M223.983 166.267C223.983 168.377 222.273 170.087 220.163 170.087C218.054 170.087 216.344 168.377 216.344 166.267C216.344 164.157 218.054 162.447 220.163 162.447C222.273 162.447 223.983 164.157 223.983 166.267Z" fill="#B3B3B3"/>
<path fill-rule="evenodd" clip-rule="evenodd" d="M220.163 168.177C221.218 168.177 222.073 167.322 222.073 166.267C222.073 165.212 221.218 164.357 220.163 164.357C219.109 164.357 218.254 165.212 218.254 166.267C218.254 167.322 219.109 168.177 220.163 168.177ZM220.163 170.087C222.273 170.087 223.983 168.377 223.983 166.267C223.983 164.157 222.273 162.447 220.163 162.447C218.054 162.447 216.344 164.157 216.344 166.267C216.344 168.377 218.054 170.087 220.163 170.087Z" fill="#B3B3B3"/>
<path d="M169.378 128.49H167.765C165.419 128.49 163.879 126.809 163.879 124.338C163.879 121.766 165.419 120.263 167.765 120.085C169.647 119.932 171.26 119.881 172.849 119.881C174.413 119.881 176.002 119.957 177.811 120.085C180.133 120.263 181.697 121.817 181.697 124.287C181.697 126.758 180.133 128.49 177.811 128.49H177.004C176.639 128.49 176.233 128.49 176.233 128.49C176.233 128.49 175.586 126.121 175.709 126.452C176.784 129.865 177.077 134.603 176.906 137.481C176.711 139.595 175.513 141.658 172.8 141.658C170.136 141.658 168.841 139.595 168.694 137.481C168.498 134.603 168.669 131.597 169.378 128.49Z" fill="#F2F2F2"/>
<path d="M111.152 206.608H109.7C107.588 206.608 106.202 205.156 106.202 203.022C106.202 200.8 107.588 199.502 109.7 199.348C111.394 199.216 112.846 199.172 114.276 199.172C115.684 199.172 117.114 199.238 118.742 199.348C120.832 199.502 122.24 200.844 122.24 202.978C122.24 205.112 120.832 206.608 118.742 206.608H118.016C117.884 206.014 117.664 205.332 117.488 204.804C117.334 204.408 116.74 204.562 116.85 204.848C117.818 207.796 118.082 211.888 117.928 214.374C117.752 216.2 116.674 217.982 114.232 217.982C111.834 217.982 110.668 216.2 110.536 214.374C110.36 211.888 110.514 209.292 111.152 206.608ZM131.196 211.8C131.152 212.878 131.064 213.956 130.954 215.012C130.8 216.662 129.876 217.96 128.05 217.96C126.18 217.96 125.278 216.662 125.124 215.012C124.838 212.394 124.794 209.6 124.816 206.872C124.86 200.558 126.818 198.996 132.604 198.952C137.158 198.908 139.666 201.24 139.622 205.794C139.622 208.852 138.632 210.612 136.19 211.514C135.816 211.624 135.97 212.064 136.322 211.976C136.96 211.844 137.664 211.448 138.236 211.074C139.006 211.734 139.798 212.702 140.282 214.066C140.788 215.518 140.348 216.882 138.676 217.63C136.872 218.466 134.694 217.652 133.682 215.98C133 214.858 132.582 213.384 132.45 211.844C132.032 211.844 131.614 211.822 131.196 211.8ZM133.902 206.432C132.868 206.058 132.076 205.618 131.262 204.782C130.998 204.54 130.492 205.024 130.778 205.42C131.416 206.278 132.516 206.784 133.55 207.158C134.012 207.312 134.21 206.586 133.902 206.432ZM149.727 214.22C149.815 215.958 149.199 217.982 146.647 217.982C144.953 217.982 143.721 216.904 143.611 215.21C143.523 213.054 143.479 210.81 143.479 208.566C143.479 203.308 145.041 199.172 150.805 199.172C156.591 199.172 158.175 203.308 158.175 208.566C158.175 210.81 158.131 213.054 158.021 215.21C157.933 216.904 156.679 217.982 154.963 217.982C152.455 217.982 151.795 215.936 151.883 214.22C150.937 214.462 150.695 214.462 149.727 214.22ZM152.697 208.214C151.817 207.554 150.651 207.4 149.551 207.356C149.045 207.334 149.045 208.104 149.419 208.148C150.497 208.214 151.399 208.412 152.433 208.962C152.741 209.138 153.093 208.456 152.697 208.214ZM168.672 217.982C163.26 217.982 161.258 212.174 161.214 205.904C161.17 202.318 162.776 199.172 165.636 199.172C168.518 199.172 169.75 201.636 169.75 204.804C169.75 207.378 169.244 210.326 167.264 212.24C167.066 212.416 167 212.526 167.132 212.658C167.264 212.812 167.396 212.922 167.638 212.724C169.794 210.656 170.3 207.928 170.256 203.946C170.234 201.262 170.85 199.172 173.226 199.172C175.36 199.172 176.218 201.24 176.02 206.344C175.8 212.372 173.116 217.982 168.672 217.982ZM179.329 214.594C179.109 212.724 179.065 210.744 179.065 208.544C179.065 206.344 179.109 204.364 179.329 202.516C179.637 199.7 183.069 198.974 186.237 198.952C189.581 198.93 193.079 199.546 193.079 203.066C193.079 204.496 192.551 204.826 190.813 204.364C190.241 204.21 189.559 204.1 189.009 204.1C187.425 204.1 186.347 204.342 185.401 204.716C184.939 204.892 185.093 205.53 185.599 205.332C187.535 204.65 190.395 204.584 191.583 205.31C192.595 205.948 193.079 206.894 193.079 208.544C193.079 210.194 192.595 211.162 191.583 211.778C190.395 212.526 187.535 212.46 185.599 211.756C185.093 211.58 184.939 212.196 185.401 212.372C186.347 212.746 187.425 212.966 189.009 212.966C189.559 212.966 190.241 212.878 190.813 212.724C192.551 212.284 193.079 212.592 193.079 214C193.079 217.52 189.581 218.158 186.237 218.136C183.069 218.114 179.637 217.366 179.329 214.594ZM196.618 213.956C196.2 210.854 196.2 206.256 196.618 202.296C196.794 200.47 197.872 199.172 199.874 199.172C203.02 199.172 203.394 202.538 203.086 206.124C202.844 209.006 202.096 210.59 201.018 211.932C200.776 212.262 201.194 212.57 201.458 212.262C202.602 210.81 204.01 209.578 205.924 209.578C208.586 209.578 209.686 211.184 209.862 213.098C210.236 216.882 206.76 218.004 202.91 218.004C199.676 218.004 197.036 217.234 196.618 213.956ZM223.381 206.608H221.929C219.817 206.608 218.431 205.156 218.431 203.022C218.431 200.8 219.817 199.502 221.929 199.348C223.623 199.216 225.075 199.172 226.505 199.172C227.913 199.172 229.343 199.238 230.971 199.348C233.061 199.502 234.469 200.844 234.469 202.978C234.469 205.112 233.061 206.608 230.971 206.608H230.245C230.113 206.014 229.893 205.332 229.717 204.804C229.563 204.408 228.969 204.562 229.079 204.848C230.047 207.796 230.311 211.888 230.157 214.374C229.981 216.2 228.903 217.982 226.461 217.982C224.063 217.982 222.897 216.2 222.765 214.374C222.589 211.888 222.743 209.292 223.381 206.608ZM243.271 214.22C243.359 215.958 242.743 217.982 240.191 217.982C238.497 217.982 237.265 216.904 237.155 215.21C237.067 213.054 237.023 210.81 237.023 208.566C237.023 203.308 238.585 199.172 244.349 199.172C250.135 199.172 251.719 203.308 251.719 208.566C251.719 210.81 251.675 213.054 251.565 215.21C251.477 216.904 250.223 217.982 248.507 217.982C245.999 217.982 245.339 215.936 245.427 214.22C244.481 214.462 244.239 214.462 243.271 214.22ZM246.241 208.214C245.361 207.554 244.195 207.4 243.095 207.356C242.589 207.334 242.589 208.104 242.963 208.148C244.041 208.214 244.943 208.412 245.977 208.962C246.285 209.138 246.637 208.456 246.241 208.214ZM255.264 213.956C254.846 210.854 254.846 206.256 255.264 202.296C255.44 200.47 256.518 199.172 258.52 199.172C261.666 199.172 262.04 202.538 261.732 206.124C261.49 209.006 260.742 210.59 259.664 211.932C259.422 212.262 259.84 212.57 260.104 212.262C261.248 210.81 262.656 209.578 264.57 209.578C267.232 209.578 268.332 211.184 268.508 213.098C268.882 216.882 265.406 218.004 261.556 218.004C258.322 218.004 255.682 217.234 255.264 213.956ZM271.391 214.594C271.171 212.724 271.127 210.744 271.127 208.544C271.127 206.344 271.171 204.364 271.391 202.516C271.699 199.7 275.131 198.974 278.299 198.952C281.643 198.93 285.141 199.546 285.141 203.066C285.141 204.496 284.613 204.826 282.875 204.364C282.303 204.21 281.621 204.1 281.071 204.1C279.487 204.1 278.409 204.342 277.463 204.716C277.001 204.892 277.155 205.53 277.661 205.332C279.597 204.65 282.457 204.584 283.645 205.31C284.657 205.948 285.141 206.894 285.141 208.544C285.141 210.194 284.657 211.162 283.645 211.778C282.457 212.526 279.597 212.46 277.661 211.756C277.155 211.58 277.001 212.196 277.463 212.372C278.409 212.746 279.487 212.966 281.071 212.966C281.621 212.966 282.303 212.878 282.875 212.724C284.613 212.284 285.141 212.592 285.141 214C285.141 217.52 281.643 218.158 278.299 218.136C275.131 218.114 271.699 217.366 271.391 214.594Z" fill="#B3B3B3"/>
</svg>
