<svg width="14" height="22" viewBox="0 0 14 22" fill="none" xmlns="http://www.w3.org/2000/svg">
<path d="M1.45312 21.4082C1.1276 21.4082 0.873698 21.304 0.691406 21.0957C0.509115 20.8874 0.417969 20.5944 0.417969 20.2168V3.26367C0.417969 2.33268 0.649089 1.63281 1.11133 1.16406C1.57357 0.695312 2.26367 0.460938 3.18164 0.460938H10.8184C11.7363 0.460938 12.4264 0.695312 12.8887 1.16406C13.3509 1.63281 13.582 2.33268 13.582 3.26367V20.2168C13.582 20.5944 13.4909 20.8874 13.3086 21.0957C13.1263 21.304 12.8724 21.4082 12.5469 21.4082C12.306 21.4082 12.0814 21.3268 11.873 21.1641C11.6712 21.0013 11.349 20.7083 10.9062 20.2852L7.08789 16.5254C7.0293 16.4603 6.9707 16.4603 6.91211 16.5254L3.09375 20.2852C2.65104 20.7148 2.32552 21.0078 2.11719 21.1641C1.90885 21.3268 1.6875 21.4082 1.45312 21.4082Z" fill="#1EB16C"/>
</svg>
