<svg width="309" height="160" viewBox="0 0 309 160" fill="none" xmlns="http://www.w3.org/2000/svg">
<rect x="0.25" y="0.25" width="308.29" height="159.502" rx="14.75" fill="#F2F2F2"/>
<rect x="0.25" y="0.25" width="308.29" height="159.502" rx="14.75" stroke="#F1F1F1" stroke-width="0.5"/>
<path d="M120.982 74.25H174.783C177.547 74.25 179.788 76.2424 179.788 78.7002V85.3754H120.982V74.25Z" fill="#B3B3B3"/>
<path d="M120.982 56.7676H150.062L151.18 74.2504H120.982V56.7676Z" fill="#B3B3B3"/>
<path d="M165.486 67.8945H175.022V75.8412H165.486V67.8945Z" fill="#B3B3B3"/>
<rect x="119.395" y="52" width="33.3762" height="7.94672" rx="3" fill="#B3B3B3"/>
<rect x="163.896" y="61.5371" width="12.7147" height="7.94672" rx="3" fill="#B3B3B3"/>
<path d="M120.982 85.377H180.123C183.597 85.377 185.528 88.3587 187.149 92.529L187.735 94.913H120.982V85.377Z" fill="#B3B3B3"/>
<rect x="119.395" y="93.3223" width="69.9311" height="6.35737" rx="3" fill="#B3B3B3"/>
<path d="M145.966 97.9986C145.966 103.644 141.39 108.22 135.745 108.22C130.1 108.22 125.523 103.644 125.523 97.9986C125.523 92.3535 130.1 87.7773 135.745 87.7773C141.39 87.7773 145.966 92.3535 145.966 97.9986Z" fill="#B3B3B3"/>
<path fill-rule="evenodd" clip-rule="evenodd" d="M135.745 106.176C140.261 106.176 143.922 102.515 143.922 97.9986C143.922 93.4826 140.261 89.8216 135.745 89.8216C131.229 89.8216 127.568 93.4826 127.568 97.9986C127.568 102.515 131.229 106.176 135.745 106.176ZM135.745 108.22C141.39 108.22 145.966 103.644 145.966 97.9986C145.966 92.3535 141.39 87.7773 135.745 87.7773C130.1 87.7773 125.523 92.3535 125.523 97.9986C125.523 103.644 130.1 108.22 135.745 108.22Z" fill="#B3B3B3"/>
<path d="M138.812 98C138.812 99.6935 137.44 101.066 135.746 101.066C134.053 101.066 132.68 99.6935 132.68 98C132.68 96.3065 134.053 94.9336 135.746 94.9336C137.44 94.9336 138.812 96.3065 138.812 98Z" fill="#B3B3B3"/>
<path fill-rule="evenodd" clip-rule="evenodd" d="M135.746 99.5331C136.593 99.5331 137.279 98.8467 137.279 98C137.279 97.1532 136.593 96.4668 135.746 96.4668C134.899 96.4668 134.213 97.1532 134.213 98C134.213 98.8467 134.899 99.5331 135.746 99.5331ZM135.746 101.066C137.44 101.066 138.812 99.6935 138.812 98C138.812 96.3065 137.44 94.9336 135.746 94.9336C134.053 94.9336 132.68 96.3065 132.68 98C132.68 99.6935 134.053 101.066 135.746 101.066Z" fill="#B3B3B3"/>
<path d="M184.339 98.7779C184.339 104.423 179.763 108.999 174.118 108.999C168.473 108.999 163.896 104.423 163.896 98.7779C163.896 93.1328 168.473 88.5566 174.118 88.5566C179.763 88.5566 184.339 93.1328 184.339 98.7779Z" fill="#B3B3B3"/>
<path fill-rule="evenodd" clip-rule="evenodd" d="M174.118 106.955C178.634 106.955 182.295 103.294 182.295 98.7779C182.295 94.2618 178.634 90.6009 174.118 90.6009C169.602 90.6009 165.941 94.2618 165.941 98.7779C165.941 103.294 169.602 106.955 174.118 106.955ZM174.118 108.999C179.763 108.999 184.339 104.423 184.339 98.7779C184.339 93.1328 179.763 88.5566 174.118 88.5566C168.473 88.5566 163.896 93.1328 163.896 98.7779C163.896 104.423 168.473 108.999 174.118 108.999Z" fill="#B3B3B3"/>
<path d="M177.184 98.7754C177.184 100.469 175.811 101.842 174.117 101.842C172.424 101.842 171.051 100.469 171.051 98.7754C171.051 97.0818 172.424 95.709 174.117 95.709C175.811 95.709 177.184 97.0818 177.184 98.7754Z" fill="#B3B3B3"/>
<path fill-rule="evenodd" clip-rule="evenodd" d="M174.117 100.309C174.964 100.309 175.65 99.6221 175.65 98.7754C175.65 97.9286 174.964 97.2422 174.117 97.2422C173.27 97.2422 172.584 97.9286 172.584 98.7754C172.584 99.6221 173.27 100.309 174.117 100.309ZM174.117 101.842C175.811 101.842 177.184 100.469 177.184 98.7754C177.184 97.0818 175.811 95.709 174.117 95.709C172.424 95.709 171.051 97.0818 171.051 98.7754C171.051 100.469 172.424 101.842 174.117 101.842Z" fill="#B3B3B3"/>
<path d="M133.346 68.4484H132.051C130.168 68.4484 128.932 67.0989 128.932 65.1155C128.932 63.0502 130.168 61.8438 132.051 61.7007C133.562 61.578 134.857 61.5371 136.133 61.5371C137.389 61.5371 138.664 61.5985 140.116 61.7007C141.98 61.8438 143.236 63.0911 143.236 65.0746C143.236 67.058 141.98 68.4484 140.116 68.4484H139.468C139.175 68.4484 138.849 68.4484 138.849 68.4484C138.849 68.4484 138.33 66.5468 138.428 66.8126C139.292 69.5526 139.527 73.3559 139.39 75.6665C139.233 77.3636 138.271 79.0199 136.093 79.0199C133.955 79.0199 132.915 77.3636 132.797 75.6665C132.64 73.3559 132.777 70.943 133.346 68.4484Z" fill="#F2F2F2"/>
</svg>
