<svg width="211" height="105" viewBox="0 0 211 105" fill="none" xmlns="http://www.w3.org/2000/svg">
<path d="M198.432 24.3177C198.432 27.5253 195.832 30.1256 192.624 30.1256C189.417 30.1256 186.816 27.5253 186.816 24.3177C186.816 21.1101 189.417 18.5098 192.624 18.5098C195.832 18.5098 198.432 21.1101 198.432 24.3177Z" fill="#F1F1F1"/>
<path d="M193.965 29.679C193.965 32.8866 191.365 35.4869 188.158 35.4869C184.95 35.4869 182.35 32.8866 182.35 29.679C182.35 26.4714 184.95 23.8711 188.158 23.8711C191.365 23.8711 193.965 26.4714 193.965 29.679Z" fill="#F1F1F1"/>
<path d="M200.221 33.2532C200.221 36.4609 197.621 39.0612 194.413 39.0612C191.206 39.0612 188.605 36.4609 188.605 33.2532C188.605 30.0456 191.206 27.4453 194.413 27.4453C197.621 27.4453 200.221 30.0456 200.221 33.2532Z" fill="#F1F1F1"/>
<path d="M208.262 30.5735C208.262 33.7812 205.662 36.3815 202.454 36.3815C199.247 36.3815 196.646 33.7812 196.646 30.5735C196.646 27.3659 199.247 24.7656 202.454 24.7656C205.662 24.7656 208.262 27.3659 208.262 30.5735Z" fill="#F1F1F1"/>
<path d="M206.473 25.2122C206.473 28.4198 203.873 31.0201 200.665 31.0201C197.458 31.0201 194.857 28.4198 194.857 25.2122C194.857 22.0046 197.458 19.4043 200.665 19.4043C203.873 19.4043 206.473 22.0046 206.473 25.2122Z" fill="#F1F1F1"/>
<path d="M162.842 8.62795C162.842 10.939 160.968 12.8125 158.657 12.8125C156.346 12.8125 154.473 10.939 154.473 8.62795C154.473 6.31686 156.346 4.44336 158.657 4.44336C160.968 4.44336 162.842 6.31686 162.842 8.62795Z" fill="#F1F1F1"/>
<path d="M159.623 12.4912C159.623 14.8023 157.75 16.6758 155.438 16.6758C153.127 16.6758 151.254 14.8023 151.254 12.4912C151.254 10.1801 153.127 8.30664 155.438 8.30664C157.75 8.30664 159.623 10.1801 159.623 12.4912Z" fill="#F1F1F1"/>
<path d="M164.131 15.0655C164.131 17.3765 162.257 19.25 159.946 19.25C157.635 19.25 155.762 17.3765 155.762 15.0655C155.762 12.7544 157.635 10.8809 159.946 10.8809C162.257 10.8809 164.131 12.7544 164.131 15.0655Z" fill="#F1F1F1"/>
<path d="M169.924 13.1338C169.924 15.4449 168.05 17.3184 165.739 17.3184C163.428 17.3184 161.555 15.4449 161.555 13.1338C161.555 10.8227 163.428 8.94922 165.739 8.94922C168.05 8.94922 169.924 10.8227 169.924 13.1338Z" fill="#F1F1F1"/>
<path d="M168.637 9.27053C168.637 11.5816 166.763 13.4551 164.452 13.4551C162.141 13.4551 160.268 11.5816 160.268 9.27053C160.268 6.95944 162.141 5.08594 164.452 5.08594C166.763 5.08594 168.637 6.95944 168.637 9.27053Z" fill="#F1F1F1"/>
<path d="M123.349 3.02295C123.349 4.69248 121.995 6.0459 120.326 6.0459C118.656 6.0459 117.303 4.69248 117.303 3.02295C117.303 1.35342 118.656 0 120.326 0C121.995 0 123.349 1.35342 123.349 3.02295Z" fill="#F1F1F1"/>
<path d="M121.022 5.81201C121.022 7.48154 119.669 8.83496 118 8.83496C116.33 8.83496 114.977 7.48154 114.977 5.81201C114.977 4.14248 116.33 2.78906 118 2.78906C119.669 2.78906 121.022 4.14248 121.022 5.81201Z" fill="#F1F1F1"/>
<path d="M124.276 7.67334C124.276 9.34287 122.923 10.6963 121.253 10.6963C119.584 10.6963 118.23 9.34287 118.23 7.67334C118.23 6.00381 119.584 4.65039 121.253 4.65039C122.923 4.65039 124.276 6.00381 124.276 7.67334Z" fill="#F1F1F1"/>
<path d="M128.462 6.27881C128.462 7.94834 127.108 9.30176 125.439 9.30176C123.769 9.30176 122.416 7.94834 122.416 6.27881C122.416 4.60928 123.769 3.25586 125.439 3.25586C127.108 3.25586 128.462 4.60928 128.462 6.27881Z" fill="#F1F1F1"/>
<path d="M127.534 3.48779C127.534 5.15732 126.181 6.51074 124.511 6.51074C122.842 6.51074 121.488 5.15732 121.488 3.48779C121.488 1.81826 122.842 0.464844 124.511 0.464844C126.181 0.464844 127.534 1.81826 127.534 3.48779Z" fill="#F1F1F1"/>
<path d="M189.758 66.7285H198.255V73.8094H189.758V66.7285Z" fill="#F1F1F1"/>
<path d="M148.688 54.7875C148.688 53.5608 149.682 52.5664 150.909 52.5664H176.206C177.433 52.5664 178.427 53.5608 178.427 54.7875V57.4262C178.427 58.6529 177.433 59.6473 176.206 59.6473H150.909C149.682 59.6473 148.688 58.6529 148.688 57.4262V54.7875Z" fill="#F1F1F1"/>
<path d="M188.344 63.2855C188.344 62.0589 189.338 61.0645 190.565 61.0645H197.452C198.679 61.0645 199.673 62.0589 199.673 63.2855V65.9244C199.673 67.151 198.679 68.1454 197.452 68.1454H190.565C189.338 68.1454 188.344 67.151 188.344 65.9244V63.2855Z" fill="#F1F1F1"/>
<path d="M150.104 82.3086H202.802C205.898 82.3086 207.618 84.9655 209.063 88.6816L209.585 90.8059H150.104V82.3086Z" fill="#F1F1F1"/>
<path d="M148.688 91.6078C148.688 90.3811 149.682 89.3867 150.909 89.3867H208.78C210.007 89.3867 211.001 90.3811 211.001 91.6078V92.8306C211.001 94.0572 210.007 95.0516 208.78 95.0516H150.909C149.682 95.0516 148.688 94.0572 148.688 92.8306V91.6078Z" fill="#F1F1F1"/>
<path d="M172.366 94.2052C172.366 99.2352 168.288 103.313 163.258 103.313C158.228 103.313 154.15 99.2352 154.15 94.2052C154.15 89.1753 158.228 85.0977 163.258 85.0977C168.288 85.0977 172.366 89.1753 172.366 94.2052Z" fill="#F1F1F1"/>
<path fill-rule="evenodd" clip-rule="evenodd" d="M163.258 101.491C167.282 101.491 170.544 98.2292 170.544 94.2052C170.544 90.1813 167.282 86.9192 163.258 86.9192C159.234 86.9192 155.972 90.1813 155.972 94.2052C155.972 98.2292 159.234 101.491 163.258 101.491ZM163.258 103.313C168.288 103.313 172.366 99.2352 172.366 94.2052C172.366 89.1753 168.288 85.0977 163.258 85.0977C158.228 85.0977 154.15 89.1753 154.15 94.2052C154.15 99.2352 158.228 103.313 163.258 103.313Z" fill="#F1F1F1"/>
<path d="M165.987 93.5503C165.987 95.0591 164.764 96.2822 163.255 96.2822C161.747 96.2822 160.523 95.0591 160.523 93.5503C160.523 92.0415 161.747 90.8184 163.255 90.8184C164.764 90.8184 165.987 92.0415 165.987 93.5503Z" fill="#F1F1F1"/>
<path fill-rule="evenodd" clip-rule="evenodd" d="M163.255 94.9162C164.01 94.9162 164.621 94.3047 164.621 93.5503C164.621 92.7959 164.01 92.1843 163.255 92.1843C162.501 92.1843 161.889 92.7959 161.889 93.5503C161.889 94.3047 162.501 94.9162 163.255 94.9162ZM163.255 96.2822C164.764 96.2822 165.987 95.0591 165.987 93.5503C165.987 92.0415 164.764 90.8184 163.255 90.8184C161.747 90.8184 160.523 92.0415 160.523 93.5503C160.523 95.0591 161.747 96.2822 163.255 96.2822Z" fill="#F1F1F1"/>
<path d="M206.561 94.2443C206.561 99.2743 202.483 103.352 197.453 103.352C192.423 103.352 188.346 99.2743 188.346 94.2443C188.346 89.2143 192.423 85.1367 197.453 85.1367C202.483 85.1367 206.561 89.2143 206.561 94.2443Z" fill="#F1F1F1"/>
<path fill-rule="evenodd" clip-rule="evenodd" d="M197.453 101.53C201.477 101.53 204.739 98.2683 204.739 94.2443C204.739 90.2203 201.477 86.9582 197.453 86.9582C193.429 86.9582 190.167 90.2203 190.167 94.2443C190.167 98.2683 193.429 101.53 197.453 101.53ZM197.453 103.352C202.483 103.352 206.561 99.2743 206.561 94.2443C206.561 89.2143 202.483 85.1367 197.453 85.1367C192.423 85.1367 188.346 89.2143 188.346 94.2443C188.346 99.2743 192.423 103.352 197.453 103.352Z" fill="#F1F1F1"/>
<path d="M200.183 94.2475C200.183 95.7563 198.959 96.9795 197.451 96.9795C195.942 96.9795 194.719 95.7563 194.719 94.2475C194.719 92.7387 195.942 91.5156 197.451 91.5156C198.959 91.5156 200.183 92.7387 200.183 94.2475Z" fill="#F1F1F1"/>
<path fill-rule="evenodd" clip-rule="evenodd" d="M197.451 95.6135C198.205 95.6135 198.817 95.0019 198.817 94.2475C198.817 93.4931 198.205 92.8816 197.451 92.8816C196.696 92.8816 196.085 93.4931 196.085 94.2475C196.085 95.0019 196.696 95.6135 197.451 95.6135ZM197.451 96.9795C198.959 96.9795 200.183 95.7563 200.183 94.2475C200.183 92.7387 198.959 91.5156 197.451 91.5156C195.942 91.5156 194.719 92.7387 194.719 94.2475C194.719 95.7563 195.942 96.9795 197.451 96.9795Z" fill="#F1F1F1"/>
<path fill-rule="evenodd" clip-rule="evenodd" d="M150.104 56.8125H176.014L177.011 72.3905H166.536C166.529 70.3747 166.274 67.7548 165.647 65.7645C165.559 65.5277 166.031 65.4001 166.154 65.7281C166.294 66.1654 166.469 66.7302 166.573 67.2221H167.15C168.811 67.2221 169.93 65.9832 169.93 64.2158C169.93 62.4485 168.811 61.337 167.15 61.2095C165.857 61.1184 164.72 61.0637 163.601 61.0637C162.465 61.0637 161.311 61.1002 159.965 61.2095C158.286 61.337 157.185 62.412 157.185 64.2522C157.185 66.0196 158.286 67.2221 159.965 67.2221H161.118C160.714 68.9943 160.554 70.7202 160.577 72.3905H150.104V56.8125ZM160.577 72.3946H150.104V82.3081H202.504V76.36C202.504 74.17 200.507 72.3946 198.044 72.3946H166.536C166.537 72.85 166.526 73.2745 166.503 73.6538C166.364 75.1661 165.507 76.6419 163.566 76.6419C161.66 76.6419 160.734 75.1661 160.629 73.6538C160.601 73.2377 160.583 72.8179 160.577 72.3946Z" fill="#F1F1F1"/>
<path d="M0 67.1112C0 65.325 1.448 63.877 3.2342 63.877H66.7053C68.4915 63.877 69.9395 65.325 69.9395 67.1111V67.9206C69.9395 68.4787 69.487 68.9312 68.9288 68.9312H1.01069C0.452503 68.9312 0 68.4787 0 67.9206V67.1112Z" fill="#F1F1F1"/>
<path fill-rule="evenodd" clip-rule="evenodd" d="M54.2425 104.952C58.9275 104.952 62.7253 101.338 62.7253 96.8801C62.7253 92.4223 58.9275 88.8086 54.2425 88.8086C49.5576 88.8086 45.7598 92.4223 45.7598 96.8801C45.7598 101.338 49.5576 104.952 54.2425 104.952ZM54.2383 100.783C56.5026 100.783 58.3383 99.0361 58.3383 96.8815C58.3383 94.7269 56.5026 92.9803 54.2383 92.9803C51.9739 92.9803 50.1382 94.7269 50.1382 96.8815C50.1382 99.0361 51.9739 100.783 54.2383 100.783Z" fill="#F1F1F1"/>
<path fill-rule="evenodd" clip-rule="evenodd" d="M17.4476 104.952C22.1325 104.952 25.9304 101.338 25.9304 96.8801C25.9304 92.4223 22.1325 88.8086 17.4476 88.8086C12.7627 88.8086 8.96484 92.4223 8.96484 96.8801C8.96484 101.338 12.7627 104.952 17.4476 104.952ZM17.4433 100.783C19.7077 100.783 21.5433 99.0361 21.5433 96.8815C21.5433 94.7269 19.7077 92.9803 17.4433 92.9803C15.179 92.9803 13.3433 94.7269 13.3433 96.8815C13.3433 99.0361 15.179 100.783 17.4433 100.783Z" fill="#F1F1F1"/>
<path fill-rule="evenodd" clip-rule="evenodd" d="M4.14833 66.9082C3.03195 66.9082 2.12695 67.8132 2.12695 68.9296V90.4956C2.12695 92.7283 3.93696 94.5383 6.1697 94.5383H63.7742C66.007 94.5383 67.817 92.7283 67.817 90.4956V68.9296C67.817 67.8132 66.912 66.9082 65.7956 66.9082H4.14833ZM10.2549 72.3365C8.21048 72.3365 6.55315 73.9938 6.55315 76.0382V76.7786C6.55315 78.823 8.21048 80.4803 10.2549 80.4803H16.9181C18.9625 80.4803 20.6198 78.823 20.6198 76.7786V76.0382C20.6198 73.9938 18.9625 72.3365 16.9181 72.3365H10.2549ZM27.7992 76.0382C27.7992 73.9938 29.4565 72.3365 31.5009 72.3365H38.1641C40.2085 72.3365 41.8659 73.9938 41.8659 76.0382V76.7786C41.8659 78.823 40.2085 80.4803 38.1641 80.4803H31.5009C29.4565 80.4803 27.7992 78.823 27.7992 76.7786V76.0382ZM53.282 72.3365C51.2376 72.3365 49.5803 73.9938 49.5803 76.0382V76.7786C49.5803 78.823 51.2376 80.4803 53.282 80.4803H59.9452C61.9896 80.4803 63.6469 78.823 63.6469 76.7786V76.0382C63.6469 73.9938 61.9896 72.3365 59.9452 72.3365H53.282Z" fill="#F1F1F1"/>
<path d="M74.3457 67.1112C74.3457 65.325 75.7937 63.877 77.5799 63.877H141.051C142.837 63.877 144.285 65.325 144.285 67.1111V67.9206C144.285 68.4787 143.833 68.9312 143.275 68.9312H75.3564C74.7982 68.9312 74.3457 68.4787 74.3457 67.9206V67.1112Z" fill="#F1F1F1"/>
<path fill-rule="evenodd" clip-rule="evenodd" d="M128.588 104.952C133.273 104.952 137.071 101.338 137.071 96.8801C137.071 92.4223 133.273 88.8086 128.588 88.8086C123.903 88.8086 120.105 92.4223 120.105 96.8801C120.105 101.338 123.903 104.952 128.588 104.952ZM128.584 100.783C130.848 100.783 132.684 99.0361 132.684 96.8815C132.684 94.7269 130.848 92.9803 128.584 92.9803C126.32 92.9803 124.484 94.7269 124.484 96.8815C124.484 99.0361 126.32 100.783 128.584 100.783Z" fill="#F1F1F1"/>
<path fill-rule="evenodd" clip-rule="evenodd" d="M91.7933 104.952C96.4782 104.952 100.276 101.338 100.276 96.8801C100.276 92.4223 96.4782 88.8086 91.7933 88.8086C87.1084 88.8086 83.3105 92.4223 83.3105 96.8801C83.3105 101.338 87.1084 104.952 91.7933 104.952ZM91.789 100.783C94.0534 100.783 95.8891 99.0361 95.8891 96.8815C95.8891 94.7269 94.0534 92.9803 91.789 92.9803C89.5247 92.9803 87.689 94.7269 87.689 96.8815C87.689 99.0361 89.5247 100.783 91.789 100.783Z" fill="#F1F1F1"/>
<path fill-rule="evenodd" clip-rule="evenodd" d="M78.494 66.9082C77.3777 66.9082 76.4727 67.8132 76.4727 68.9296V90.4956C76.4727 92.7283 78.2827 94.5383 80.5154 94.5383H138.12C140.353 94.5383 142.163 92.7283 142.163 90.4956V68.9296C142.163 67.8132 141.258 66.9082 140.141 66.9082H78.494ZM84.6006 72.3365C82.5562 72.3365 80.8989 73.9938 80.8989 76.0382V76.7786C80.8989 78.823 82.5562 80.4803 84.6006 80.4803H91.2638C93.3082 80.4803 94.9655 78.823 94.9655 76.7786V76.0382C94.9655 73.9938 93.3082 72.3365 91.2638 72.3365H84.6006ZM102.145 76.0382C102.145 73.9938 103.802 72.3365 105.847 72.3365H112.51C114.554 72.3365 116.212 73.9938 116.212 76.0382V76.7786C116.212 78.823 114.554 80.4803 112.51 80.4803H105.847C103.802 80.4803 102.145 78.823 102.145 76.7786V76.0382ZM127.628 72.3365C125.583 72.3365 123.926 73.9938 123.926 76.0382V76.7786C123.926 78.823 125.583 80.4803 127.628 80.4803H134.291C136.335 80.4803 137.993 78.823 137.993 76.7786V76.0382C137.993 73.9938 136.335 72.3365 134.291 72.3365H127.628Z" fill="#F1F1F1"/>
</svg>
