<svg width="190" height="97" viewBox="0 0 190 97" fill="none" xmlns="http://www.w3.org/2000/svg">
<circle cx="172.049" cy="22.0396" r="5.26425" fill="#F1F1F1"/>
<circle cx="167.999" cy="26.899" r="5.26425" fill="#F1F1F1"/>
<circle cx="173.669" cy="30.1373" r="5.26425" fill="#F1F1F1"/>
<circle cx="180.958" cy="27.7096" r="5.26425" fill="#F1F1F1"/>
<circle cx="179.337" cy="22.8502" r="5.26425" fill="#F1F1F1"/>
<circle cx="141.262" cy="7.81827" r="3.79288" fill="#F1F1F1"/>
<circle cx="138.344" cy="11.3202" r="3.79288" fill="#F1F1F1"/>
<circle cx="142.43" cy="13.6542" r="3.79288" fill="#F1F1F1"/>
<circle cx="147.68" cy="11.9042" r="3.79288" fill="#F1F1F1"/>
<circle cx="146.514" cy="8.40225" r="3.79288" fill="#F1F1F1"/>
<circle cx="106.517" cy="2.73997" r="2.73997" fill="#F1F1F1"/>
<circle cx="104.41" cy="5.26927" r="2.73997" fill="#F1F1F1"/>
<circle cx="107.361" cy="6.95482" r="2.73997" fill="#F1F1F1"/>
<circle cx="111.154" cy="5.69115" r="2.73997" fill="#F1F1F1"/>
<circle cx="110.312" cy="3.1599" r="2.73997" fill="#F1F1F1"/>
<path d="M170.871 54.7539H178.523V61.1301H170.871V54.7539Z" fill="#F1F1F1"/>
<rect x="133.889" y="42" width="26.7799" height="6.37617" rx="3" fill="#F1F1F1"/>
<rect x="169.598" y="49.6523" width="10.202" height="6.37626" rx="3" fill="#F1F1F1"/>
<path d="M135.166 68.7812H182.62C185.408 68.7812 186.956 71.1738 188.258 74.52L188.728 76.4329H135.166V68.7812Z" fill="#F1F1F1"/>
<rect x="133.889" y="75.1562" width="56.1121" height="5.1011" rx="2.55055" fill="#F1F1F1"/>
<path d="M155.209 79.4941C155.209 84.0235 151.537 87.6953 147.008 87.6953C142.478 87.6953 138.807 84.0235 138.807 79.4941C138.807 74.9648 142.478 71.293 147.008 71.293C151.537 71.293 155.209 74.9648 155.209 79.4941Z" fill="#F1F1F1"/>
<path fill-rule="evenodd" clip-rule="evenodd" d="M147.008 86.0551C150.631 86.0551 153.569 83.1176 153.569 79.4941C153.569 75.8706 150.631 72.9332 147.008 72.9332C143.384 72.9332 140.447 75.8706 140.447 79.4941C140.447 83.1176 143.384 86.0551 147.008 86.0551ZM147.008 87.6953C151.537 87.6953 155.209 84.0235 155.209 79.4941C155.209 74.9648 151.537 71.293 147.008 71.293C142.478 71.293 138.807 74.9648 138.807 79.4941C138.807 84.0235 142.478 87.6953 147.008 87.6953Z" fill="#F1F1F1"/>
<path d="M149.467 78.9034C149.467 80.262 148.366 81.3634 147.007 81.3634C145.648 81.3634 144.547 80.262 144.547 78.9034C144.547 77.5448 145.648 76.4434 147.007 76.4434C148.366 76.4434 149.467 77.5448 149.467 78.9034Z" fill="#F1F1F1"/>
<path fill-rule="evenodd" clip-rule="evenodd" d="M147.007 80.1334C147.686 80.1334 148.237 79.5827 148.237 78.9034C148.237 78.2241 147.686 77.6734 147.007 77.6734C146.328 77.6734 145.777 78.2241 145.777 78.9034C145.777 79.5827 146.328 80.1334 147.007 80.1334ZM147.007 81.3634C148.366 81.3634 149.467 80.262 149.467 78.9034C149.467 77.5448 148.366 76.4434 147.007 76.4434C145.648 76.4434 144.547 77.5448 144.547 78.9034C144.547 80.262 145.648 81.3634 147.007 81.3634Z" fill="#F1F1F1"/>
<path d="M186.002 79.5293C186.002 84.0587 182.33 87.7305 177.801 87.7305C173.271 87.7305 169.6 84.0587 169.6 79.5293C169.6 74.9999 173.271 71.3281 177.801 71.3281C182.33 71.3281 186.002 74.9999 186.002 79.5293Z" fill="#F1F1F1"/>
<path fill-rule="evenodd" clip-rule="evenodd" d="M177.801 86.0902C181.424 86.0902 184.362 83.1528 184.362 79.5293C184.362 75.9058 181.424 72.9684 177.801 72.9684C174.177 72.9684 171.24 75.9058 171.24 79.5293C171.24 83.1528 174.177 86.0902 177.801 86.0902ZM177.801 87.7305C182.33 87.7305 186.002 84.0587 186.002 79.5293C186.002 74.9999 182.33 71.3281 177.801 71.3281C173.271 71.3281 169.6 74.9999 169.6 79.5293C169.6 84.0587 173.271 87.7305 177.801 87.7305Z" fill="#F1F1F1"/>
<path d="M180.26 79.5323C180.26 80.8909 179.159 81.9923 177.8 81.9923C176.441 81.9923 175.34 80.8909 175.34 79.5323C175.34 78.1737 176.441 77.0723 177.8 77.0723C179.159 77.0723 180.26 78.1737 180.26 79.5323Z" fill="#F1F1F1"/>
<path fill-rule="evenodd" clip-rule="evenodd" d="M177.8 80.7623C178.479 80.7623 179.03 80.2116 179.03 79.5323C179.03 78.853 178.479 78.3023 177.8 78.3023C177.121 78.3023 176.57 78.853 176.57 79.5323C176.57 80.2116 177.121 80.7623 177.8 80.7623ZM177.8 81.9923C179.159 81.9923 180.26 80.8909 180.26 79.5323C180.26 78.1737 179.159 77.0723 177.8 77.0723C176.441 77.0723 175.34 78.1737 175.34 79.5323C175.34 80.8909 176.441 81.9923 177.8 81.9923Z" fill="#F1F1F1"/>
<path fill-rule="evenodd" clip-rule="evenodd" d="M135.164 45.8242H158.496L159.394 59.8518H149.962C149.956 58.0367 149.727 55.6774 149.162 53.8852C149.083 53.6719 149.508 53.557 149.618 53.8524C149.744 54.2461 149.902 54.7547 149.996 55.1977H150.516C152.011 55.1977 153.019 54.0821 153.019 52.4906C153.019 50.8991 152.011 49.8983 150.516 49.7835C149.351 49.7015 148.327 49.6522 147.32 49.6522C146.296 49.6522 145.257 49.685 144.045 49.7835C142.534 49.8983 141.542 50.8663 141.542 52.5234C141.542 54.1149 142.534 55.1977 144.045 55.1977H145.084C144.72 56.7936 144.576 58.3477 144.597 59.8518H135.164V45.8242ZM144.597 59.856H135.164V68.7829H182.349V63.4267C182.349 61.4547 180.551 59.856 178.333 59.856H149.962C149.964 60.2658 149.954 60.6479 149.933 60.9893C149.807 62.3511 149.036 63.68 147.288 63.68C145.572 63.68 144.738 62.3511 144.643 60.9893C144.618 60.6148 144.602 60.237 144.597 59.856Z" fill="#F1F1F1"/>
<path d="M0 55.0998C0 53.4914 1.30389 52.1875 2.91232 52.1875H60.0665C61.6749 52.1875 62.9788 53.4914 62.9788 55.0998V55.8287C62.9788 56.3313 62.5714 56.7388 62.0687 56.7388H0.910101C0.407468 56.7388 0 56.3313 0 55.8287V55.0998Z" fill="#F1F1F1"/>
<path fill-rule="evenodd" clip-rule="evenodd" d="M52.6629 96.4431C58.9908 96.4431 64.1206 91.562 64.1206 85.5409C64.1206 79.5198 58.9908 74.6387 52.6629 74.6387C46.3349 74.6387 41.2051 79.5198 41.2051 85.5409C41.2051 91.562 46.3349 96.4431 52.6629 96.4431ZM52.6571 90.8122C55.7156 90.8122 58.195 88.453 58.195 85.5428C58.195 82.6326 55.7156 80.2734 52.6571 80.2734C49.5986 80.2734 47.1191 82.6326 47.1191 85.5428C47.1191 88.453 49.5986 90.8122 52.6571 90.8122Z" fill="#F1F1F1"/>
<path fill-rule="evenodd" clip-rule="evenodd" d="M19.532 96.4431C25.86 96.4431 30.9898 91.562 30.9898 85.5409C30.9898 79.5198 25.86 74.6387 19.532 74.6387C13.204 74.6387 8.07422 79.5198 8.07422 85.5409C8.07422 91.562 13.204 96.4431 19.532 96.4431ZM19.5262 90.8122C22.5847 90.8122 25.0641 88.453 25.0641 85.5428C25.0641 82.6326 22.5847 80.2734 19.5262 80.2734C16.4677 80.2734 13.9883 82.6326 13.9883 85.5428C13.9883 88.453 16.4677 90.8122 19.5262 90.8122Z" fill="#F1F1F1"/>
<path fill-rule="evenodd" clip-rule="evenodd" d="M3.73426 54.9199C2.72899 54.9199 1.91406 55.7349 1.91406 56.7401V76.1598C1.91406 78.1703 3.54393 79.8002 5.55446 79.8002H57.4259C59.4365 79.8002 61.0663 78.1703 61.0663 76.1598V56.7401C61.0663 55.7349 60.2514 54.9199 59.2461 54.9199H3.73426ZM9.56638 59.8085C7.54133 59.8085 5.89971 61.4501 5.89971 63.4751C5.89971 65.5002 7.54134 67.1418 9.56638 67.1418H14.8997C16.9248 67.1418 18.5664 65.5002 18.5664 63.4751C18.5664 61.4501 16.9248 59.8085 14.8997 59.8085H9.56638ZM25.0319 63.4751C25.0319 61.4501 26.6735 59.8085 28.6986 59.8085H34.0319C36.057 59.8085 37.6986 61.4501 37.6986 63.4751C37.6986 65.5002 36.057 67.1418 34.0319 67.1418H28.6986C26.6736 67.1418 25.0319 65.5002 25.0319 63.4751ZM48.3117 59.8085C46.2867 59.8085 44.6451 61.4501 44.6451 63.4751C44.6451 65.5002 46.2867 67.1418 48.3117 67.1418H53.6451C55.6701 67.1418 57.3118 65.5002 57.3118 63.4751C57.3118 61.4501 55.6701 59.8085 53.6451 59.8085H48.3117Z" fill="#F1F1F1"/>
<path d="M66.9473 55.0998C66.9473 53.4914 68.2512 52.1875 69.8596 52.1875H127.014C128.622 52.1875 129.926 53.4914 129.926 55.0998V55.8287C129.926 56.3313 129.519 56.7388 129.016 56.7388H67.8574C67.3547 56.7388 66.9473 56.3313 66.9473 55.8287V55.0998Z" fill="#F1F1F1"/>
<path fill-rule="evenodd" clip-rule="evenodd" d="M119.612 96.4431C125.94 96.4431 131.07 91.562 131.07 85.5409C131.07 79.5198 125.94 74.6387 119.612 74.6387C113.284 74.6387 108.154 79.5198 108.154 85.5409C108.154 91.562 113.284 96.4431 119.612 96.4431ZM119.606 90.8122C122.665 90.8122 125.144 88.453 125.144 85.5428C125.144 82.6326 122.665 80.2734 119.606 80.2734C116.548 80.2734 114.068 82.6326 114.068 85.5428C114.068 88.453 116.548 90.8122 119.606 90.8122Z" fill="#F1F1F1"/>
<path fill-rule="evenodd" clip-rule="evenodd" d="M86.4793 96.4431C92.8072 96.4431 97.9371 91.562 97.9371 85.5409C97.9371 79.5198 92.8072 74.6387 86.4793 74.6387C80.1513 74.6387 75.0215 79.5198 75.0215 85.5409C75.0215 91.562 80.1513 96.4431 86.4793 96.4431ZM86.4735 90.8122C89.532 90.8122 92.0114 88.453 92.0114 85.5428C92.0114 82.6326 89.532 80.2734 86.4735 80.2734C83.415 80.2734 80.9355 82.6326 80.9355 85.5428C80.9355 88.453 83.415 90.8122 86.4735 90.8122Z" fill="#F1F1F1"/>
<path fill-rule="evenodd" clip-rule="evenodd" d="M70.6815 54.9199C69.6763 54.9199 68.8613 55.7349 68.8613 56.7401V76.1598C68.8613 78.1703 70.4912 79.8002 72.5017 79.8002H124.373C126.384 79.8002 128.014 78.1703 128.014 76.1598V56.7401C128.014 55.7349 127.199 54.9199 126.193 54.9199H70.6815ZM76.5136 59.8085C74.4886 59.8085 72.847 61.4501 72.847 63.4751C72.847 65.5002 74.4886 67.1418 76.5137 67.1418H81.847C83.872 67.1418 85.5137 65.5002 85.5137 63.4751C85.5137 61.4501 83.872 59.8085 81.847 59.8085H76.5136ZM91.9792 63.4751C91.9792 61.4501 93.6208 59.8085 95.6459 59.8085H100.979C103.004 59.8085 104.646 61.4501 104.646 63.4751C104.646 65.5002 103.004 67.1418 100.979 67.1418H95.6459C93.6208 67.1418 91.9792 65.5002 91.9792 63.4751ZM115.259 59.8085C113.234 59.8085 111.592 61.4501 111.592 63.4751C111.592 65.5002 113.234 67.1418 115.259 67.1418H120.592C122.617 67.1418 124.259 65.5002 124.259 63.4751C124.259 61.4501 122.617 59.8085 120.592 59.8085H115.259Z" fill="#F1F1F1"/>
</svg>
