<svg width="64" height="64" viewBox="0 0 64 64" fill="none" xmlns="http://www.w3.org/2000/svg">
<path d="M18.8652 31.9297C18.8652 31.6611 18.9588 31.4292 19.146 31.2339C19.3413 31.0467 19.5732 30.9531 19.8418 30.9531H44.1338C44.4023 30.9531 44.6343 31.0467 44.8296 31.2339C45.0249 31.4292 45.1226 31.6611 45.1226 31.9297C45.1226 32.1982 45.0249 32.4302 44.8296 32.6255C44.6343 32.8208 44.4023 32.9185 44.1338 32.9185H19.8418C19.5732 32.9185 19.3413 32.8208 19.146 32.6255C18.9588 32.4302 18.8652 32.1982 18.8652 31.9297ZM21.0015 17.9526V17.6597C21.0015 17.4237 21.0666 17.2365 21.1968 17.0981C21.3351 16.9598 21.5304 16.8906 21.7827 16.8906H24.9077C25.16 16.8906 25.3553 16.9598 25.4937 17.0981C25.632 17.2365 25.7012 17.4237 25.7012 17.6597V17.9526C25.7012 18.1968 25.632 18.388 25.4937 18.5264C25.3553 18.6647 25.16 18.7339 24.9077 18.7339H21.7827C21.5304 18.7339 21.3351 18.6647 21.1968 18.5264C21.0666 18.388 21.0015 18.1968 21.0015 17.9526ZM22.4297 28.3896V18.0747H24.2729V28.3896H22.4297ZM21.0015 29.0977V28.8047C21.0015 28.5687 21.0666 28.3815 21.1968 28.2432C21.3351 28.1048 21.5304 28.0356 21.7827 28.0356H24.9077C25.16 28.0356 25.3553 28.1048 25.4937 28.2432C25.632 28.3815 25.7012 28.5687 25.7012 28.8047V29.0977C25.7012 29.3499 25.632 29.5412 25.4937 29.6714C25.3553 29.8097 25.16 29.8789 24.9077 29.8789H21.7827C21.5304 29.8789 21.3351 29.8097 21.1968 29.6714C21.0666 29.5412 21.0015 29.3499 21.0015 29.0977ZM26.7998 17.9526V17.6597C26.7998 17.4237 26.869 17.2365 27.0073 17.0981C27.1457 16.9598 27.3369 16.8906 27.5811 16.8906H30.7183C30.9624 16.8906 31.1536 16.9598 31.292 17.0981C31.4303 17.2365 31.4995 17.4237 31.4995 17.6597V17.9526C31.4995 18.1968 31.4303 18.388 31.292 18.5264C31.1536 18.6647 30.9624 18.7339 30.7183 18.7339H27.5811C27.3369 18.7339 27.1457 18.6647 27.0073 18.5264C26.869 18.388 26.7998 18.1968 26.7998 17.9526ZM28.2402 28.3896V18.0747H30.0835V28.3896H28.2402ZM26.7998 29.0977V28.8047C26.7998 28.5687 26.869 28.3815 27.0073 28.2432C27.1457 28.1048 27.3369 28.0356 27.5811 28.0356H30.7183C30.9624 28.0356 31.1536 28.1048 31.292 28.2432C31.4303 28.3815 31.4995 28.5687 31.4995 28.8047V29.0977C31.4995 29.3499 31.4303 29.5412 31.292 29.6714C31.1536 29.8097 30.9624 29.8789 30.7183 29.8789H27.5811C27.3369 29.8789 27.1457 29.8097 27.0073 29.6714C26.869 29.5412 26.7998 29.3499 26.7998 29.0977ZM32.6104 17.9526V17.6597C32.6104 17.4237 32.6795 17.2365 32.8179 17.0981C32.9562 16.9598 33.1475 16.8906 33.3916 16.8906H36.5288C36.7729 16.8906 36.9642 16.9598 37.1025 17.0981C37.2409 17.2365 37.3101 17.4237 37.3101 17.6597V17.9526C37.3101 18.1968 37.2409 18.388 37.1025 18.5264C36.9642 18.6647 36.7729 18.7339 36.5288 18.7339H33.3916C33.1475 18.7339 32.9562 18.6647 32.8179 18.5264C32.6795 18.388 32.6104 18.1968 32.6104 17.9526ZM34.0508 28.3896V18.0747H35.894V28.3896H34.0508ZM32.6104 29.0977V28.8047C32.6104 28.5687 32.6795 28.3815 32.8179 28.2432C32.9562 28.1048 33.1475 28.0356 33.3916 28.0356H36.5288C36.7729 28.0356 36.9642 28.1048 37.1025 28.2432C37.2409 28.3815 37.3101 28.5687 37.3101 28.8047V29.0977C37.3101 29.3499 37.2409 29.5412 37.1025 29.6714C36.9642 29.8097 36.7729 29.8789 36.5288 29.8789H33.3916C33.1475 29.8789 32.9562 29.8097 32.8179 29.6714C32.6795 29.5412 32.6104 29.3499 32.6104 29.0977ZM38.4209 17.9526V17.6597C38.4209 17.4237 38.486 17.2365 38.6162 17.0981C38.7546 16.9598 38.9499 16.8906 39.2021 16.8906H42.3271C42.5794 16.8906 42.7707 16.9598 42.9009 17.0981C43.0392 17.2365 43.1084 17.4237 43.1084 17.6597V17.9526C43.1084 18.1968 43.0392 18.388 42.9009 18.5264C42.7707 18.6647 42.5794 18.7339 42.3271 18.7339H39.2021C38.9499 18.7339 38.7546 18.6647 38.6162 18.5264C38.486 18.388 38.4209 18.1968 38.4209 17.9526ZM39.8491 28.3896V18.0747H41.6924V28.3896H39.8491ZM38.4209 29.0977V28.8047C38.4209 28.5687 38.486 28.3815 38.6162 28.2432C38.7546 28.1048 38.9499 28.0356 39.2021 28.0356H42.3271C42.5794 28.0356 42.7707 28.1048 42.9009 28.2432C43.0392 28.3815 43.1084 28.5687 43.1084 28.8047V29.0977C43.1084 29.3499 43.0392 29.5412 42.9009 29.6714C42.7707 29.8097 42.5794 29.8789 42.3271 29.8789H39.2021C38.9499 29.8789 38.7546 29.8097 38.6162 29.6714C38.486 29.5412 38.4209 29.3499 38.4209 29.0977ZM20.4766 15.8286C20.1348 15.8286 19.8703 15.7269 19.6831 15.5234C19.5041 15.32 19.4146 15.0921 19.4146 14.8398C19.4146 14.6608 19.4634 14.494 19.561 14.3394C19.6668 14.1766 19.8337 14.0301 20.0615 13.8999L30.4863 7.89404C30.9827 7.60921 31.4832 7.4668 31.9878 7.4668C32.4924 7.4668 32.9928 7.60921 33.4893 7.89404L43.9141 13.8999C44.1419 14.0301 44.3047 14.1766 44.4023 14.3394C44.5081 14.494 44.561 14.6608 44.561 14.8398C44.561 15.0921 44.4674 15.32 44.2803 15.5234C44.1012 15.7269 43.8408 15.8286 43.499 15.8286H20.4766Z" fill="#707070"/>
<g filter="url(#filter0_d_1738_4418)">
<path d="M21.9009 47.2021V47.3481C21.8924 47.9025 21.8691 48.4272 21.8311 48.9224C21.7972 49.4132 21.7231 49.9613 21.6089 50.5664L20.4155 50.4521C20.5256 49.8893 20.5996 49.3815 20.6377 48.9287C20.68 48.4759 20.7054 48.0189 20.7139 47.5576H16.1626V46.5674H21.9009V47.2021ZM15.4771 51.5439C16.2853 51.5439 17.0597 51.5355 17.8003 51.5186V49.1191H18.9937V51.4805C20.4071 51.4212 21.6131 51.3197 22.6118 51.1758L22.688 52.0518C21.6343 52.238 20.5213 52.3628 19.3491 52.4263C18.1769 52.4855 16.9243 52.5173 15.5913 52.5215L15.4771 51.5439ZM17.2036 53.4736H18.4097V55.8604H24.9351V56.8379H17.2036V53.4736ZM23.3354 45.7041H24.5669V49.3223H26.1284V50.3379H24.5669V54.248H23.3354V45.7041ZM33.1362 47.0371C33.132 47.5957 33.113 48.1035 33.0791 48.5605C33.0452 49.0133 32.967 49.5254 32.8442 50.0967L31.6509 49.9951C31.7609 49.4958 31.835 49.0387 31.873 48.624C31.9111 48.2093 31.9323 47.7946 31.9365 47.3799H27.3979V46.3896H33.1362V47.0371ZM26.7124 51.0742C27.436 51.0742 28.2104 51.0679 29.0356 51.0552V48.8779H30.229V51.0234C31.5916 50.9727 32.7977 50.8838 33.8472 50.7568L33.9233 51.6074C32.8569 51.7852 31.7292 51.9079 30.54 51.9756C29.3551 52.0391 28.1174 52.0729 26.8267 52.0771L26.7124 51.0742ZM28.1978 54.9463C28.1978 54.5231 28.3522 54.1571 28.6611 53.8481C28.9701 53.5392 29.4144 53.3022 29.9941 53.1372C30.5739 52.9722 31.2573 52.8896 32.0444 52.8896C32.8315 52.8896 33.515 52.9722 34.0947 53.1372C34.6745 53.3022 35.1188 53.5392 35.4277 53.8481C35.7367 54.1571 35.8911 54.5231 35.8911 54.9463C35.8911 55.3864 35.7367 55.763 35.4277 56.0762C35.1188 56.3936 34.6745 56.6326 34.0947 56.7935C33.5192 56.9585 32.8358 57.041 32.0444 57.041C31.2531 57.041 30.5675 56.9585 29.9878 56.7935C29.4123 56.6326 28.9701 56.3936 28.6611 56.0762C28.3522 55.763 28.1978 55.3864 28.1978 54.9463ZM29.4165 54.9463C29.4123 55.3145 29.6366 55.598 30.0894 55.7969C30.5464 55.9915 31.1854 56.0889 32.0063 56.0889C32.8527 56.0889 33.5065 55.9937 33.9678 55.8032C34.4333 55.6086 34.6681 55.3229 34.6724 54.9463C34.6681 54.7135 34.5602 54.5146 34.3486 54.3496C34.1413 54.1803 33.8408 54.0513 33.4473 53.9624C33.0537 53.8735 32.5861 53.8291 32.0444 53.8291C31.4985 53.8291 31.0267 53.8735 30.6289 53.9624C30.2354 54.0513 29.9349 54.1803 29.7275 54.3496C29.5202 54.5146 29.4165 54.7135 29.4165 54.9463ZM34.5708 45.7041H35.8022V48.7129H37.3765V49.7158H35.8022V52.75H34.5708V45.7041ZM42.2261 49.0557C42.2261 49.682 42.353 50.304 42.6069 50.9219C42.8651 51.5397 43.2205 52.092 43.6733 52.5786C44.1304 53.0653 44.6466 53.4313 45.2222 53.6768L44.562 54.6162C43.8976 54.3242 43.3094 53.882 42.7974 53.2896C42.2853 52.6971 41.896 52.0179 41.6294 51.252C41.3628 52.0729 40.9735 52.8071 40.4614 53.4546C39.9494 54.1021 39.3654 54.5866 38.7095 54.9082L38.0112 53.9561C38.5741 53.6937 39.0819 53.3022 39.5347 52.7817C39.9917 52.257 40.3493 51.6667 40.6074 51.0107C40.8698 50.3548 41.0031 49.7031 41.0073 49.0557V47.8496H38.4048V46.8467H44.8159V47.8496H42.2261V49.0557ZM46.2505 45.7041H47.4565V57.0791H46.2505V45.7041Z" fill="#707070"/>
</g>
<defs>
<filter id="filter0_d_1738_4418" x="12.4766" y="42.7031" width="37.9805" height="17.375" filterUnits="userSpaceOnUse" color-interpolation-filters="sRGB">
<feFlood flood-opacity="0" result="BackgroundImageFix"/>
<feColorMatrix in="SourceAlpha" type="matrix" values="0 0 0 0 0 0 0 0 0 0 0 0 0 0 0 0 0 0 127 0" result="hardAlpha"/>
<feOffset/>
<feGaussianBlur stdDeviation="1.5"/>
<feComposite in2="hardAlpha" operator="out"/>
<feColorMatrix type="matrix" values="0 0 0 0 0 0 0 0 0 0 0 0 0 0 0 0 0 0 0.1 0"/>
<feBlend mode="normal" in2="BackgroundImageFix" result="effect1_dropShadow_1738_4418"/>
<feBlend mode="normal" in="SourceGraphic" in2="effect1_dropShadow_1738_4418" result="shape"/>
</filter>
</defs>
</svg>
