<svg width="15" height="13" viewBox="0 0 15 13" fill="none" xmlns="http://www.w3.org/2000/svg">
<path d="M0.242188 6.35938C0.242188 6.16146 0.322917 5.98698 0.484375 5.83594L5.65625 0.671875C5.73958 0.588542 5.82292 0.528646 5.90625 0.492188C5.99479 0.455729 6.08594 0.4375 6.17969 0.4375C6.3724 0.4375 6.53385 0.502604 6.66406 0.632812C6.79948 0.757812 6.86719 0.916667 6.86719 1.10938C6.86719 1.20312 6.84896 1.29427 6.8125 1.38281C6.78125 1.46615 6.73438 1.53906 6.67188 1.60156L4.92188 3.38281L1.82812 6.21094L1.66406 5.82031L4.17969 5.66406H14.0625C14.2656 5.66406 14.4297 5.72917 14.5547 5.85938C14.6849 5.98958 14.75 6.15625 14.75 6.35938C14.75 6.5625 14.6849 6.72917 14.5547 6.85938C14.4297 6.98958 14.2656 7.05469 14.0625 7.05469H4.17969L1.66406 6.89844L1.82812 6.51562L4.92188 9.33594L6.67188 11.1172C6.73438 11.1797 6.78125 11.2552 6.8125 11.3438C6.84896 11.4271 6.86719 11.5156 6.86719 11.6094C6.86719 11.8021 6.79948 11.9609 6.66406 12.0859C6.53385 12.2161 6.3724 12.2812 6.17969 12.2812C5.99219 12.2812 5.82292 12.2083 5.67188 12.0625L0.484375 6.88281C0.322917 6.73177 0.242188 6.55729 0.242188 6.35938Z" fill="black"/>
</svg>
