<svg width="16" height="17" viewBox="0 0 16 17" fill="none" xmlns="http://www.w3.org/2000/svg">
<path d="M3.91406 9.20312C3.75781 9.20312 3.6276 9.15104 3.52344 9.04688C3.41927 8.94271 3.36719 8.8125 3.36719 8.65625C3.36719 8.50521 3.41927 8.3776 3.52344 8.27344C3.6276 8.16927 3.75781 8.11719 3.91406 8.11719H7.45312V3.39062C7.45312 3.23958 7.50521 3.11198 7.60938 3.00781C7.71354 2.90365 7.84115 2.85156 7.99219 2.85156C8.14844 2.85156 8.27865 2.90365 8.38281 3.00781C8.48698 3.11198 8.53906 3.23958 8.53906 3.39062V8.65625C8.53906 8.8125 8.48698 8.94271 8.38281 9.04688C8.27865 9.15104 8.14844 9.20312 7.99219 9.20312H3.91406ZM8 16.3281C6.91146 16.3281 5.88542 16.1198 4.92188 15.7031C3.96354 15.2865 3.11719 14.7109 2.38281 13.9766C1.64844 13.2422 1.07292 12.3958 0.65625 11.4375C0.239583 10.474 0.03125 9.44792 0.03125 8.35938C0.03125 7.27083 0.239583 6.2474 0.65625 5.28906C1.07292 4.32552 1.64583 3.47656 2.375 2.74219C3.10938 2.00781 3.95573 1.43229 4.91406 1.01562C5.8776 0.598958 6.90365 0.390625 7.99219 0.390625C9.08073 0.390625 10.1068 0.598958 11.0703 1.01562C12.0339 1.43229 12.8828 2.00781 13.6172 2.74219C14.3516 3.47656 14.9271 4.32552 15.3438 5.28906C15.7604 6.2474 15.9688 7.27083 15.9688 8.35938C15.9688 9.44792 15.7604 10.474 15.3438 11.4375C14.9271 12.3958 14.3516 13.2422 13.6172 13.9766C12.8828 14.7109 12.0339 15.2865 11.0703 15.7031C10.112 16.1198 9.08854 16.3281 8 16.3281ZM8 15C8.92188 15 9.78385 14.8281 10.5859 14.4844C11.388 14.1406 12.0938 13.6667 12.7031 13.0625C13.3125 12.4531 13.7865 11.7474 14.125 10.9453C14.4688 10.1432 14.6406 9.28125 14.6406 8.35938C14.6406 7.4375 14.4688 6.57552 14.125 5.77344C13.7812 4.97135 13.3047 4.26562 12.6953 3.65625C12.0911 3.04688 11.3854 2.57292 10.5781 2.23438C9.77604 1.89062 8.91406 1.71875 7.99219 1.71875C7.07031 1.71875 6.20833 1.89062 5.40625 2.23438C4.60417 2.57292 3.90104 3.04688 3.29688 3.65625C2.69271 4.26562 2.21875 4.97135 1.875 5.77344C1.53646 6.57552 1.36719 7.4375 1.36719 8.35938C1.36719 9.28125 1.53646 10.1432 1.875 10.9453C2.21875 11.7474 2.69271 12.4531 3.29688 13.0625C3.90625 13.6667 4.61198 14.1406 5.41406 14.4844C6.21615 14.8281 7.07812 15 8 15Z" fill="black" fill-opacity="0.5"/>
</svg>
