<svg width="102" height="102" viewBox="0 0 102 102" fill="none" xmlns="http://www.w3.org/2000/svg">
<rect x="0.75" y="0.75" width="100.5" height="100.5" rx="14.25" fill="#F1F1F1"/>
<rect x="0.75" y="0.75" width="100.5" height="100.5" rx="14.25" stroke="#F1F1F1" stroke-width="0.5"/>
<path d="M25.248 46.4902H67.5378C69.7105 46.4902 71.4718 48.0563 71.4718 49.9882V55.2353H25.248V46.4902Z" fill="#B3B3B3"/>
<path d="M25.248 32.748H48.1054L48.9846 46.4902H25.248V32.748Z" fill="#B3B3B3"/>
<path d="M60.2305 41.4941H67.7262V47.7406H60.2305V41.4941Z" fill="#B3B3B3"/>
<rect x="24" y="29" width="26.2351" height="6.24645" rx="3" fill="#B3B3B3"/>
<rect x="58.9805" y="36.4961" width="9.99432" height="6.24645" rx="3" fill="#B3B3B3"/>
<path d="M25.248 55.2363H71.7348C74.4659 55.2363 75.9832 57.5801 77.258 60.8581L77.7182 62.7321H25.248V55.2363Z" fill="#B3B3B3"/>
<rect x="24" y="61.4824" width="54.9688" height="4.99716" rx="2.49858" fill="#B3B3B3"/>
<path d="M44.885 65.1554C44.885 69.5926 41.2879 73.1897 36.8507 73.1897C32.4135 73.1897 28.8164 69.5926 28.8164 65.1554C28.8164 60.7182 32.4135 57.1211 36.8507 57.1211C41.2879 57.1211 44.885 60.7182 44.885 65.1554Z" fill="#B3B3B3"/>
<path fill-rule="evenodd" clip-rule="evenodd" d="M36.8507 71.5829C40.4005 71.5829 43.2782 68.7052 43.2782 65.1554C43.2782 61.6056 40.4005 58.728 36.8507 58.728C33.3009 58.728 30.4233 61.6056 30.4233 65.1554C30.4233 68.7052 33.3009 71.5829 36.8507 71.5829ZM36.8507 73.1897C41.2879 73.1897 44.885 69.5926 44.885 65.1554C44.885 60.7182 41.2879 57.1211 36.8507 57.1211C32.4135 57.1211 28.8164 60.7182 28.8164 65.1554C28.8164 69.5926 32.4135 73.1897 36.8507 73.1897Z" fill="#B3B3B3"/>
<path d="M39.2627 65.1567C39.2627 66.4881 38.1834 67.5674 36.852 67.5674C35.5207 67.5674 34.4414 66.4881 34.4414 65.1567C34.4414 63.8254 35.5207 62.7461 36.852 62.7461C38.1834 62.7461 39.2627 63.8254 39.2627 65.1567Z" fill="#B3B3B3"/>
<path fill-rule="evenodd" clip-rule="evenodd" d="M36.852 66.362C37.5177 66.362 38.0574 65.8224 38.0574 65.1567C38.0574 64.4911 37.5177 63.9514 36.852 63.9514C36.1864 63.9514 35.6467 64.4911 35.6467 65.1567C35.6467 65.8224 36.1864 66.362 36.852 66.362ZM36.852 67.5674C38.1834 67.5674 39.2627 66.4881 39.2627 65.1567C39.2627 63.8254 38.1834 62.7461 36.852 62.7461C35.5207 62.7461 34.4414 63.8254 34.4414 65.1567C34.4414 66.4881 35.5207 67.5674 36.852 67.5674Z" fill="#B3B3B3"/>
<path d="M75.0471 65.7667C75.0471 70.204 71.4501 73.801 67.0128 73.801C62.5756 73.801 58.9785 70.204 58.9785 65.7667C58.9785 61.3295 62.5756 57.7324 67.0128 57.7324C71.4501 57.7324 75.0471 61.3295 75.0471 65.7667Z" fill="#B3B3B3"/>
<path fill-rule="evenodd" clip-rule="evenodd" d="M67.0128 72.1942C70.5626 72.1942 73.4403 69.3165 73.4403 65.7667C73.4403 62.217 70.5626 59.3393 67.0128 59.3393C63.463 59.3393 60.5854 62.217 60.5854 65.7667C60.5854 69.3165 63.463 72.1942 67.0128 72.1942ZM67.0128 73.801C71.4501 73.801 75.0471 70.204 75.0471 65.7667C75.0471 61.3295 71.4501 57.7324 67.0128 57.7324C62.5756 57.7324 58.9785 61.3295 58.9785 65.7667C58.9785 70.204 62.5756 73.801 67.0128 73.801Z" fill="#B3B3B3"/>
<path d="M69.4248 65.7681C69.4248 67.0994 68.3455 68.1787 67.0142 68.1787C65.6828 68.1787 64.6035 67.0994 64.6035 65.7681C64.6035 64.4367 65.6828 63.3574 67.0142 63.3574C68.3455 63.3574 69.4248 64.4367 69.4248 65.7681Z" fill="#B3B3B3"/>
<path fill-rule="evenodd" clip-rule="evenodd" d="M67.0142 66.9734C67.6798 66.9734 68.2195 66.4337 68.2195 65.7681C68.2195 65.1024 67.6798 64.5627 67.0142 64.5627C66.3485 64.5627 65.8088 65.1024 65.8088 65.7681C65.8088 66.4337 66.3485 66.9734 67.0142 66.9734ZM67.0142 68.1787C68.3455 68.1787 69.4248 67.0994 69.4248 65.7681C69.4248 64.4367 68.3455 63.3574 67.0142 63.3574C65.6828 63.3574 64.6035 64.4367 64.6035 65.7681C64.6035 67.0994 65.6828 68.1787 67.0142 68.1787Z" fill="#B3B3B3"/>
<path d="M34.9663 41.9287H33.9484C32.4678 41.9287 31.4961 40.8679 31.4961 39.3088C31.4961 37.6855 32.4678 36.7372 33.9484 36.6247C35.136 36.5282 36.1539 36.4961 37.1565 36.4961C38.1435 36.4961 39.1461 36.5443 40.2874 36.6247C41.7526 36.7372 42.7397 37.7176 42.7397 39.2767C42.7397 40.8357 41.7526 41.9287 40.2874 41.9287H39.7784C39.5482 41.9287 39.2919 41.9287 39.2919 41.9287C39.2919 41.9287 38.8839 40.4339 38.961 40.6429C39.6396 42.7966 39.8247 45.7861 39.7167 47.6024C39.5933 48.9364 38.8376 50.2383 37.1256 50.2383C35.4445 50.2383 34.627 48.9364 34.5345 47.6024C34.4111 45.7861 34.5191 43.8896 34.9663 41.9287Z" fill="#F2F2F2"/>
</svg>
