<svg width="35" height="35" viewBox="0 0 35 35" fill="none" xmlns="http://www.w3.org/2000/svg">
<rect width="35" height="35" rx="17.5" fill="#E7FFE8"/>
<path d="M9.62695 15.6426C9.62695 13.9857 10.9701 12.6426 12.627 12.6426H21.627C23.2838 12.6426 24.627 13.9857 24.627 15.6426V23.9608C24.627 25.6176 23.2838 26.9608 21.627 26.9608H12.627C10.9701 26.9608 9.62695 25.6176 9.62695 23.9608V15.6426Z" fill="#1EB16C"/>
<path d="M16.4499 6.26352C16.8324 5.91216 17.4203 5.91216 17.8028 6.26352L26.9272 14.6443C27.5985 15.261 27.1622 16.3808 26.2507 16.3808H8.00201C7.09049 16.3808 6.65424 15.261 7.32555 14.6443L16.4499 6.26352Z" fill="#1FC376"/>
<path d="M16.4499 8.26352C16.8324 7.91216 17.4203 7.91216 17.8028 8.26352L26.9272 16.6443C27.5985 17.261 27.1622 18.3808 26.2507 18.3808H8.00201C7.09049 18.3808 6.65424 17.261 7.32555 16.6443L16.4499 8.26352Z" fill="#1EB16C"/>
<path d="M13.627 20.1426C13.627 19.8664 13.8508 19.6426 14.127 19.6426H16.127C16.4031 19.6426 16.627 19.8664 16.627 20.1426V22.1426C16.627 22.4187 16.4031 22.6426 16.127 22.6426H14.127C13.8508 22.6426 13.627 22.4187 13.627 22.1426V20.1426Z" fill="#8D8D8D"/>
<path d="M17.627 16.1426C17.627 15.8664 17.8508 15.6426 18.127 15.6426H20.127C20.4031 15.6426 20.627 15.8664 20.627 16.1426V18.1426C20.627 18.4187 20.4031 18.6426 20.127 18.6426H18.127C17.8508 18.6426 17.627 18.4187 17.627 18.1426V16.1426Z" fill="#8D8D8D"/>
<path d="M13.627 16.1426C13.627 15.8664 13.8508 15.6426 14.127 15.6426H16.127C16.4031 15.6426 16.627 15.8664 16.627 16.1426V18.1426C16.627 18.4187 16.4031 18.6426 16.127 18.6426H14.127C13.8508 18.6426 13.627 18.4187 13.627 18.1426V16.1426Z" fill="#8D8D8D"/>
<path d="M17.627 20.1426C17.627 19.8664 17.8508 19.6426 18.127 19.6426H20.127C20.4031 19.6426 20.627 19.8664 20.627 20.1426V22.1426C20.627 22.4187 20.4031 22.6426 20.127 22.6426H18.127C17.8508 22.6426 17.627 22.4187 17.627 22.1426V20.1426Z" fill="#8D8D8D"/>
</svg>
