<svg width="36" height="36" viewBox="0 0 36 36" fill="none" xmlns="http://www.w3.org/2000/svg">
<circle cx="18" cy="18" r="18" fill="#1EB16C"/>
<path d="M7.95898 16.1133C7.95898 15.0391 8.16081 14.0332 8.56445 13.0957C8.9681 12.1517 9.52799 11.3216 10.2441 10.6055C10.9603 9.88932 11.7871 9.32943 12.7246 8.92578C13.6686 8.52214 14.6777 8.32031 15.752 8.32031C16.8262 8.32031 17.832 8.52214 18.7695 8.92578C19.7135 9.32943 20.5436 9.88932 21.2598 10.6055C21.9759 11.3216 22.5358 12.1517 22.9395 13.0957C23.3431 14.0332 23.5449 15.0391 23.5449 16.1133C23.5449 17.0052 23.4017 17.8516 23.1152 18.6523C22.8353 19.4531 22.4447 20.179 21.9434 20.8301L26.7188 25.6348C26.8229 25.7389 26.901 25.8594 26.9531 25.9961C27.0117 26.1328 27.041 26.2793 27.041 26.4355C27.041 26.6504 26.9922 26.8457 26.8945 27.0215C26.8034 27.1973 26.6732 27.334 26.5039 27.4316C26.3346 27.5358 26.1393 27.5879 25.918 27.5879C25.7617 27.5879 25.612 27.5586 25.4688 27.5C25.332 27.4479 25.2051 27.3665 25.0879 27.2559L20.2832 22.4414C19.6452 22.8971 18.9421 23.2552 18.1738 23.5156C17.4056 23.776 16.5983 23.9062 15.752 23.9062C14.6777 23.9062 13.6686 23.7044 12.7246 23.3008C11.7871 22.8971 10.9603 22.3372 10.2441 21.6211C9.52799 20.9049 8.9681 20.0781 8.56445 19.1406C8.16081 18.1966 7.95898 17.1875 7.95898 16.1133ZM9.62891 16.1133C9.62891 16.9596 9.78516 17.7539 10.0977 18.4961C10.4167 19.2318 10.8561 19.8796 11.416 20.4395C11.9824 20.9993 12.6335 21.4388 13.3691 21.7578C14.1113 22.0768 14.9056 22.2363 15.752 22.2363C16.5983 22.2363 17.3893 22.0768 18.125 21.7578C18.8672 21.4388 19.5182 20.9993 20.0781 20.4395C20.638 19.8796 21.0775 19.2318 21.3965 18.4961C21.7155 17.7539 21.875 16.9596 21.875 16.1133C21.875 15.2669 21.7155 14.4759 21.3965 13.7402C21.0775 12.998 20.638 12.347 20.0781 11.7871C19.5182 11.2207 18.8672 10.7812 18.125 10.4688C17.3893 10.1497 16.5983 9.99023 15.752 9.99023C14.9056 9.99023 14.1113 10.1497 13.3691 10.4688C12.6335 10.7812 11.9824 11.2207 11.416 11.7871C10.8561 12.347 10.4167 12.998 10.0977 13.7402C9.78516 14.4759 9.62891 15.2669 9.62891 16.1133Z" fill="white"/>
</svg>
