<svg width="64" height="64" viewBox="0 0 64 64" fill="none" xmlns="http://www.w3.org/2000/svg">
<path d="M27.4329 24.1323C26.5901 24.1323 25.8062 23.9272 25.0812 23.5168C24.3562 23.1064 23.721 22.5367 23.1757 21.8078C22.6304 21.0789 22.2028 20.2337 21.893 19.272C21.5893 18.3042 21.4375 17.266 21.4375 16.1573C21.4375 15.2876 21.58 14.4821 21.8651 13.7409C22.1563 12.9998 22.5684 12.3536 23.1013 11.8023C23.6342 11.2511 24.2663 10.8223 24.9975 10.516C25.7349 10.2098 26.5467 10.0566 27.4329 10.0566C28.319 10.0566 29.1277 10.2098 29.8589 10.516C30.5963 10.8223 31.2315 11.2511 31.7644 11.8023C32.3035 12.3536 32.7156 12.9998 33.0006 13.7409C33.2919 14.4821 33.4375 15.2876 33.4375 16.1573C33.4375 17.266 33.2826 18.3042 32.9727 19.272C32.6691 20.2337 32.2446 21.0789 31.6993 21.8078C31.154 22.5367 30.5157 23.1064 29.7845 23.5168C29.0595 23.9272 28.2756 24.1323 27.4329 24.1323ZM26.1315 23.4984H28.7249L29.1803 25.1522C29.2299 25.3359 29.2051 25.5105 29.106 25.6759C29.0068 25.8352 28.8395 25.9148 28.604 25.9148H26.271C26.0355 25.9148 25.8682 25.8352 25.769 25.6759C25.6699 25.5105 25.6451 25.3359 25.6947 25.1522L26.1315 23.4984ZM27.3213 35.0566C27.1416 35.0566 26.9867 34.9893 26.8566 34.8545C26.7264 34.7259 26.6614 34.5728 26.6614 34.3951C26.6614 33.8316 26.7233 33.3569 26.8473 32.971C26.9774 32.5912 27.1323 32.2666 27.312 31.9971C27.4979 31.7337 27.6838 31.4948 27.8697 31.2805C28.0556 31.0722 28.2105 30.8578 28.3345 30.6373C28.4584 30.4229 28.5204 30.1687 28.5204 29.8747C28.5204 29.5868 28.4584 29.3326 28.3345 29.1121C28.2167 28.8855 28.068 28.665 27.8883 28.4506C27.7148 28.2362 27.5382 28.0004 27.3585 27.7432C27.185 27.4859 27.0363 27.1827 26.9123 26.8336C26.7946 26.4844 26.7388 26.0587 26.745 25.5565H28.0649C28.0587 25.924 28.1145 26.2425 28.2322 26.512C28.35 26.7815 28.4956 27.0326 28.6691 27.2654C28.8488 27.4981 29.0254 27.737 29.1989 27.982C29.3786 28.2209 29.5274 28.4935 29.6451 28.7998C29.769 29.0999 29.831 29.4582 29.831 29.8747C29.831 30.3831 29.738 30.8119 29.5521 31.161C29.3662 31.5163 29.1494 31.844 28.9015 32.1441C28.6598 32.4442 28.446 32.7689 28.2601 33.118C28.0742 33.4672 27.9813 33.8929 27.9813 34.3951C27.9813 34.5728 27.9162 34.7259 27.7861 34.8545C27.6559 34.9893 27.501 35.0566 27.3213 35.0566Z" fill="#707070" fill-opacity="0.8"/>
<path d="M27.5342 15.9587L27.5341 15.9587L27.5353 15.9623C27.9407 17.2352 28.5033 18.3637 29.2269 19.3422C29.9515 20.3221 30.803 21.0974 31.7828 21.6585C32.0538 21.8137 32.331 21.9477 32.6143 22.0604L32.3216 23.1817C32.3215 23.1821 32.3213 23.1826 32.3212 23.183C32.2241 23.5483 32.2758 23.9087 32.4683 24.2334L32.4682 24.2335L32.4726 24.2406C32.7116 24.629 33.1097 24.7832 33.5312 24.7832H33.6806C33.7194 25.0807 33.7804 25.3578 33.8655 25.6132L33.8654 25.6132L33.868 25.6206C34.0355 26.0979 34.2404 26.5236 34.4863 26.8926L34.4863 26.8926L34.4909 26.8993C34.7232 27.2358 34.9529 27.5462 35.1799 27.8299L35.1798 27.83L35.1853 27.8366C35.3908 28.0846 35.5576 28.3358 35.688 28.5897L35.6918 28.597L35.6957 28.6041C35.8052 28.8012 35.8672 29.0396 35.8672 29.334C35.8672 29.6386 35.8042 29.8739 35.6987 30.0586L35.6987 30.0586L35.6957 30.0638C35.5586 30.3106 35.3849 30.5548 35.172 30.7961L35.1719 30.7961L35.1672 30.8016C34.9207 31.0892 34.6763 31.4072 34.4337 31.7549L34.4335 31.7548L34.4263 31.7659C34.1713 32.1527 33.9589 32.6073 33.7842 33.1228L33.7842 33.1228L33.7813 33.1319C33.6047 33.688 33.5234 34.348 33.5234 35.0996C33.5234 35.4604 33.6592 35.7804 33.9119 36.035C34.1645 36.2977 34.4869 36.4434 34.8555 36.4434C35.224 36.4434 35.5464 36.2977 35.7991 36.035C36.0517 35.7804 36.1875 35.4604 36.1875 35.0996C36.1875 34.5185 36.2939 34.0601 36.4815 33.7036C36.7012 33.2861 36.9531 32.8992 37.237 32.5423C37.5708 32.1329 37.8622 31.6872 38.1113 31.2059C38.3922 30.6714 38.5195 30.0401 38.5195 29.334C38.5195 28.758 38.4354 28.2356 38.2504 27.7797C38.0885 27.3549 37.8818 26.9697 37.6283 26.6275C37.4078 26.3127 37.1833 26.0055 36.9548 25.706C36.76 25.441 36.596 25.1549 36.4629 24.8467C36.454 24.826 36.4453 24.8048 36.437 24.7832H36.4727C36.8942 24.7832 37.2923 24.629 37.5313 24.2406L37.5314 24.2406L37.5356 24.2334C37.7283 23.9083 37.7799 23.5475 37.6823 23.1817L37.6817 23.1792L37.3772 22.0607C37.6605 21.948 37.9377 21.8141 38.2086 21.659C39.1962 21.098 40.052 20.3227 40.777 19.3422C41.501 18.3632 42.0599 17.234 42.4575 15.9604C42.8647 14.6733 43.0664 13.2981 43.0664 11.8379C43.0664 10.673 42.8735 9.58422 42.4823 8.57645C42.0999 7.57119 41.545 6.68958 40.8175 5.93673C40.0969 5.18282 39.2389 4.5979 38.2491 4.1819C37.2589 3.76246 36.1723 3.55664 34.9961 3.55664C33.8196 3.55664 32.7294 3.76258 31.7321 4.18161L31.7321 4.18161L31.7307 4.1822C30.748 4.5986 29.894 5.18393 29.1737 5.93777C28.4546 6.69033 27.9004 7.57105 27.5105 8.57482L27.5105 8.57482L27.5092 8.57818C27.1262 9.5855 26.9375 10.6737 26.9375 11.8379C26.9375 13.2975 27.1351 14.672 27.5342 15.9587Z" fill="#707070" stroke="white"/>
<g filter="url(#filter0_d_1738_4431)">
<path d="M24.7466 50.1768H21.3569V51.3193H25.9653V52.2969H15.5552V51.3193H20.1636V50.1768H16.939V46.8125H18.1196V49.1992H24.7466V50.1768ZM16.8247 53.1348H24.6577V55.8643H18.0562V56.9307H25.0513V57.8828H16.8501V55.001H23.4644V54.0742H16.8247V53.1348ZM36.2739 58.0225H35.0806V52.1445H32.5288V51.1543H35.0806V46.6475H36.2739V58.0225ZM26.7778 54.9629C28.2505 54.2435 29.3529 53.3781 30.085 52.3667C30.8171 51.3511 31.236 50.1725 31.3418 48.8311H27.2856V47.8662H32.5669C32.5584 49.6266 32.1564 51.1818 31.3608 52.5317C30.5653 53.8774 29.2492 55.0052 27.4126 55.915L26.7778 54.9629ZM47.4839 58.0479H46.2778V46.6475H47.4839V58.0479ZM38.6733 47.6758H44.0054V51.8271H39.9175V54.3154C40.9035 54.3112 41.8154 54.2795 42.6533 54.2202C43.4954 54.161 44.3693 54.0573 45.2749 53.9092L45.3892 54.8994C44.4455 55.056 43.5293 55.1639 42.6406 55.2231C41.752 55.2824 40.7554 55.3141 39.6509 55.3184H38.686V50.8623H42.7739V48.6533H38.6733V47.6758Z" fill="#707070"/>
</g>
<defs>
<filter id="filter0_d_1738_4431" x="12.5547" y="43.6484" width="37.9297" height="17.3984" filterUnits="userSpaceOnUse" color-interpolation-filters="sRGB">
<feFlood flood-opacity="0" result="BackgroundImageFix"/>
<feColorMatrix in="SourceAlpha" type="matrix" values="0 0 0 0 0 0 0 0 0 0 0 0 0 0 0 0 0 0 127 0" result="hardAlpha"/>
<feOffset/>
<feGaussianBlur stdDeviation="1.5"/>
<feComposite in2="hardAlpha" operator="out"/>
<feColorMatrix type="matrix" values="0 0 0 0 0 0 0 0 0 0 0 0 0 0 0 0 0 0 0.1 0"/>
<feBlend mode="normal" in2="BackgroundImageFix" result="effect1_dropShadow_1738_4431"/>
<feBlend mode="normal" in="SourceGraphic" in2="effect1_dropShadow_1738_4431" result="shape"/>
</filter>
</defs>
</svg>
