<svg width="169" height="130" viewBox="0 0 169 130" fill="none" xmlns="http://www.w3.org/2000/svg">
<rect width="168.5" height="130" rx="15" fill="#F2F2F2"/>
<path d="M56.3164 59.4492H100.923C103.215 59.4492 105.073 61.1011 105.073 63.1389V68.6734H56.3164V59.4492Z" fill="#B3B3B3"/>
<path d="M56.3164 44.9531H80.4261L81.3534 59.4482H56.3164V44.9531Z" fill="#B3B3B3"/>
<path d="M93.2148 54.1777H101.122V60.7669H93.2148V54.1777Z" fill="#B3B3B3"/>
<rect x="55" y="41" width="27.6725" height="6.58869" rx="3" fill="#B3B3B3"/>
<rect x="91.8965" y="48.9062" width="10.5419" height="6.58869" rx="3" fill="#B3B3B3"/>
<path d="M56.3164 68.6738H105.35C108.231 68.6738 109.831 71.146 111.176 74.6036L111.661 76.5803H56.3164V68.6738Z" fill="#B3B3B3"/>
<rect x="55" y="75.2617" width="57.9805" height="5.27095" rx="2.63548" fill="#B3B3B3"/>
<path d="M77.0291 79.1366C77.0291 83.817 73.2349 87.6111 68.5546 87.6111C63.8742 87.6111 60.0801 83.817 60.0801 79.1366C60.0801 74.4563 63.8742 70.6621 68.5546 70.6621C73.2349 70.6621 77.0291 74.4563 77.0291 79.1366Z" fill="#B3B3B3"/>
<path fill-rule="evenodd" clip-rule="evenodd" d="M68.5546 85.9162C72.2989 85.9162 75.3342 82.8809 75.3342 79.1366C75.3342 75.3923 72.2989 72.357 68.5546 72.357C64.8103 72.357 61.775 75.3923 61.775 79.1366C61.775 82.8809 64.8103 85.9162 68.5546 85.9162ZM68.5546 87.6111C73.2349 87.6111 77.0291 83.817 77.0291 79.1366C77.0291 74.4563 73.2349 70.6621 68.5546 70.6621C63.8742 70.6621 60.0801 74.4563 60.0801 79.1366C60.0801 83.817 63.8742 87.6111 68.5546 87.6111Z" fill="#B3B3B3"/>
<path d="M71.0998 79.1388C71.0998 80.5433 69.9612 81.6818 68.5567 81.6818C67.1522 81.6818 66.0137 80.5433 66.0137 79.1388C66.0137 77.7343 67.1522 76.5957 68.5567 76.5957C69.9612 76.5957 71.0998 77.7343 71.0998 79.1388Z" fill="#B3B3B3"/>
<path fill-rule="evenodd" clip-rule="evenodd" d="M68.5567 80.4103C69.259 80.4103 69.8283 79.841 69.8283 79.1388C69.8283 78.4365 69.259 77.8672 68.5567 77.8672C67.8545 77.8672 67.2852 78.4365 67.2852 79.1388C67.2852 79.841 67.8545 80.4103 68.5567 80.4103ZM68.5567 81.6818C69.9612 81.6818 71.0998 80.5433 71.0998 79.1388C71.0998 77.7343 69.9612 76.5957 68.5567 76.5957C67.1522 76.5957 66.0137 77.7343 66.0137 79.1388C66.0137 80.5433 67.1522 81.6818 68.5567 81.6818Z" fill="#B3B3B3"/>
<path d="M108.846 79.7811C108.846 84.4615 105.051 88.2557 100.371 88.2557C95.6907 88.2557 91.8965 84.4615 91.8965 79.7811C91.8965 75.1008 95.6907 71.3066 100.371 71.3066C105.051 71.3066 108.846 75.1008 108.846 79.7811Z" fill="#B3B3B3"/>
<path fill-rule="evenodd" clip-rule="evenodd" d="M100.371 86.5608C104.115 86.5608 107.151 83.5254 107.151 79.7811C107.151 76.0369 104.115 73.0015 100.371 73.0015C96.6267 73.0015 93.5914 76.0369 93.5914 79.7811C93.5914 83.5254 96.6267 86.5608 100.371 86.5608ZM100.371 88.2557C105.051 88.2557 108.846 84.4615 108.846 79.7811C108.846 75.1008 105.051 71.3066 100.371 71.3066C95.6907 71.3066 91.8965 75.1008 91.8965 79.7811C91.8965 84.4615 95.6907 88.2557 100.371 88.2557Z" fill="#B3B3B3"/>
<path d="M102.916 79.7833C102.916 81.1878 101.778 82.3263 100.373 82.3263C98.9686 82.3263 97.8301 81.1878 97.8301 79.7833C97.8301 78.3788 98.9686 77.2402 100.373 77.2402C101.778 77.2402 102.916 78.3788 102.916 79.7833Z" fill="#B3B3B3"/>
<path fill-rule="evenodd" clip-rule="evenodd" d="M100.373 81.0548C101.075 81.0548 101.645 80.4855 101.645 79.7833C101.645 79.081 101.075 78.5118 100.373 78.5118C99.6709 78.5118 99.1016 79.081 99.1016 79.7833C99.1016 80.4855 99.6709 81.0548 100.373 81.0548ZM100.373 82.3263C101.778 82.3263 102.916 81.1878 102.916 79.7833C102.916 78.3788 101.778 77.2402 100.373 77.2402C98.9686 77.2402 97.8301 78.3788 97.8301 79.7833C97.8301 81.1878 98.9686 82.3263 100.373 82.3263Z" fill="#B3B3B3"/>
<path d="M66.5666 54.6365H65.4929C63.9312 54.6365 62.9062 53.5176 62.9062 51.8731C62.9062 50.1608 63.9312 49.1606 65.4929 49.0419C66.7456 48.9402 67.8193 48.9062 68.8767 48.9062C69.9179 48.9062 70.9754 48.9571 72.1792 49.0419C73.7247 49.1606 74.7659 50.1947 74.7659 51.8392C74.7659 53.4837 73.7247 54.6365 72.1792 54.6365H71.6424C71.3995 54.6365 71.1291 54.6365 71.1291 54.6365C71.1291 54.6365 70.6988 53.0598 70.7801 53.2802C71.496 55.552 71.6912 58.7053 71.5773 60.621C71.4471 62.0281 70.65 63.4014 68.8442 63.4014C67.071 63.4014 66.2087 62.0281 66.1111 60.621C65.981 58.7053 66.0949 56.7048 66.5666 54.6365Z" fill="#F2F2F2"/>
</svg>
