<svg width="18" height="17" viewBox="0 0 18 17" fill="none" xmlns="http://www.w3.org/2000/svg">
<path d="M8.28125 16.5234C8.07812 16.5234 7.90625 16.4661 7.76562 16.3516C7.625 16.2422 7.53125 16.0859 7.48438 15.8828L7.07812 14.1641C6.92708 14.112 6.77865 14.0573 6.63281 14C6.48698 13.9427 6.34896 13.8828 6.21875 13.8203L4.71875 14.7422C4.54688 14.8464 4.36979 14.8906 4.1875 14.875C4.01042 14.8594 3.85156 14.7812 3.71094 14.6406L2.71094 13.6406C2.57031 13.5 2.48958 13.3359 2.46875 13.1484C2.45312 12.9609 2.5026 12.7839 2.61719 12.6172L3.53125 11.125C3.46875 10.9896 3.40885 10.8516 3.35156 10.7109C3.29427 10.5703 3.24479 10.4297 3.20312 10.2891L1.46875 9.875C1.26562 9.83333 1.10938 9.74219 1 9.60156C0.890625 9.46094 0.835938 9.28906 0.835938 9.08594V7.67188C0.835938 7.47396 0.890625 7.30469 1 7.16406C1.10938 7.02344 1.26562 6.93229 1.46875 6.89062L3.1875 6.47656C3.23438 6.3151 3.28646 6.16406 3.34375 6.02344C3.40625 5.88281 3.46354 5.75 3.51562 5.625L2.60156 4.10938C2.48698 3.94271 2.4375 3.77083 2.45312 3.59375C2.46875 3.41146 2.54948 3.25 2.69531 3.10938L3.71094 2.10156C3.85677 1.96615 4.01302 1.88802 4.17969 1.86719C4.35156 1.84635 4.52344 1.88542 4.69531 1.98438L6.21094 2.92188C6.34115 2.85417 6.47917 2.79167 6.625 2.73438C6.77604 2.67188 6.92708 2.61458 7.07812 2.5625L7.48438 0.835938C7.53125 0.638021 7.625 0.481771 7.76562 0.367188C7.90625 0.252604 8.07812 0.195312 8.28125 0.195312H9.71875C9.92188 0.195312 10.0938 0.252604 10.2344 0.367188C10.375 0.481771 10.4661 0.638021 10.5078 0.835938L10.9141 2.57812C11.0755 2.63021 11.2266 2.6849 11.3672 2.74219C11.513 2.79948 11.6484 2.86198 11.7734 2.92969L13.3047 1.98438C13.4766 1.88542 13.6458 1.84896 13.8125 1.875C13.9792 1.89583 14.1354 1.97135 14.2812 2.10156L15.3047 3.10938C15.4505 3.25 15.5286 3.41146 15.5391 3.59375C15.5547 3.77083 15.5078 3.94271 15.3984 4.10938L14.4766 5.625C14.5286 5.75 14.5833 5.88281 14.6406 6.02344C14.7031 6.16406 14.7604 6.3151 14.8125 6.47656L16.5312 6.89062C16.7292 6.93229 16.8828 7.02344 16.9922 7.16406C17.1068 7.30469 17.1641 7.47396 17.1641 7.67188V9.08594C17.1641 9.28906 17.1068 9.46094 16.9922 9.60156C16.8828 9.74219 16.7292 9.83333 16.5312 9.875L14.7969 10.2891C14.75 10.4297 14.6979 10.5703 14.6406 10.7109C14.5885 10.8516 14.5286 10.9896 14.4609 11.125L15.3828 12.6172C15.4974 12.7839 15.5443 12.9609 15.5234 13.1484C15.5078 13.3359 15.4297 13.5 15.2891 13.6406L14.2812 14.6406C14.1406 14.7812 13.9792 14.8594 13.7969 14.875C13.6198 14.8906 13.4479 14.8464 13.2812 14.7422L11.7734 13.8203C11.6432 13.8828 11.5052 13.9427 11.3594 14C11.2135 14.0573 11.0651 14.112 10.9141 14.1641L10.5078 15.8828C10.4661 16.0859 10.375 16.2422 10.2344 16.3516C10.0938 16.4661 9.92188 16.5234 9.71875 16.5234H8.28125ZM9 11.1172C9.50521 11.1172 9.96615 10.9922 10.3828 10.7422C10.8047 10.4922 11.138 10.1589 11.3828 9.74219C11.6328 9.32031 11.7578 8.85677 11.7578 8.35156C11.7578 7.84635 11.6328 7.38802 11.3828 6.97656C11.138 6.5599 10.8047 6.22656 10.3828 5.97656C9.96615 5.72656 9.50521 5.60156 9 5.60156C8.49479 5.60156 8.03385 5.72656 7.61719 5.97656C7.20052 6.22656 6.86719 6.5599 6.61719 6.97656C6.36719 7.38802 6.24219 7.84635 6.24219 8.35156C6.24219 8.85677 6.36458 9.32031 6.60938 9.74219C6.85938 10.1589 7.19271 10.4922 7.60938 10.7422C8.03125 10.9922 8.49479 11.1172 9 11.1172Z" fill="black"/>
</svg>
