<svg width="65" height="64" viewBox="0 0 65 64" fill="none" xmlns="http://www.w3.org/2000/svg">
<g filter="url(#filter0_bii_1738_4423)">
<mask id="path-2-inside-1_1738_4423" fill="white">
<path d="M28.1348 33.4434C27.6221 33.4434 27.2192 33.305 26.9263 33.0283C26.6333 32.7516 26.4909 32.3651 26.499 31.8687L26.731 18.1602C26.731 17.9486 26.6862 17.7655 26.5967 17.6108C26.5072 17.4481 26.3647 17.326 26.1694 17.2446C25.6323 17.0086 25.1929 16.7523 24.8511 16.4756C24.5174 16.1908 24.2773 15.8286 24.1309 15.3892C23.9844 14.9497 23.9274 14.3719 23.96 13.6558L24.2896 6.16064C24.3058 5.89209 24.3872 5.68457 24.5337 5.53809C24.6802 5.3916 24.8796 5.31836 25.1318 5.31836C25.376 5.31836 25.5632 5.39567 25.6934 5.55029C25.8317 5.69678 25.9009 5.90837 25.9009 6.18506L25.8154 13.4727C25.8154 13.9365 26.0433 14.1685 26.499 14.1685C26.7025 14.1685 26.8693 14.1115 26.9995 13.9976C27.1379 13.8755 27.207 13.7127 27.207 13.5093L27.3291 5.96533C27.3291 5.70492 27.4023 5.50146 27.5488 5.35498C27.6953 5.2085 27.8906 5.13525 28.1348 5.13525C28.387 5.13525 28.5824 5.2085 28.7207 5.35498C28.8672 5.50146 28.9445 5.70492 28.9526 5.96533L29.0747 13.5093C29.0747 13.7127 29.1398 13.8755 29.27 13.9976C29.4002 14.1115 29.5711 14.1685 29.7827 14.1685C29.978 14.1685 30.1367 14.1074 30.2588 13.9854C30.389 13.8633 30.4541 13.6924 30.4541 13.4727L30.3687 6.18506C30.3687 5.90837 30.4378 5.69678 30.5762 5.55029C30.7145 5.39567 30.9017 5.31836 31.1377 5.31836C31.6748 5.31836 31.9556 5.59912 31.98 6.16064L32.3218 13.6558C32.3462 14.3719 32.2852 14.9497 32.1387 15.3892C31.9922 15.8286 31.748 16.1908 31.4062 16.4756C31.0726 16.7523 30.6372 17.0086 30.1001 17.2446C29.9129 17.326 29.7705 17.4481 29.6729 17.6108C29.5833 17.7655 29.5386 17.9486 29.5386 18.1602L29.7827 31.8687C29.7827 32.3651 29.6362 32.7516 29.3433 33.0283C29.0503 33.305 28.6475 33.4434 28.1348 33.4434ZM37.6929 22.7988C37.701 22.5791 37.6522 22.3838 37.5464 22.2129C37.4487 22.0339 37.2941 21.867 37.0825 21.7124L36.3501 21.2241C36.049 21.0207 35.8211 20.7643 35.6665 20.4551C35.5119 20.1458 35.4346 19.7796 35.4346 19.3564V18.7583C35.4346 17.5376 35.5119 16.3169 35.6665 15.0962C35.8211 13.8755 36.0409 12.6995 36.3257 11.5684C36.6187 10.429 36.9645 9.3833 37.3633 8.43115C37.762 7.47087 38.2056 6.64486 38.6938 5.95312C38.8973 5.66829 39.0845 5.46077 39.2554 5.33057C39.4263 5.20036 39.6257 5.13525 39.8535 5.13525C40.0814 5.13525 40.2848 5.21257 40.4639 5.36719C40.6429 5.51367 40.7324 5.74154 40.7324 6.05078V31.9419C40.7324 32.4302 40.5819 32.8005 40.2808 33.0527C39.9797 33.3132 39.5728 33.4434 39.0601 33.4434C38.5555 33.4434 38.1527 33.3009 37.8516 33.0161C37.5505 32.7394 37.408 32.3366 37.4243 31.8076L37.6929 22.7988Z"/>
</mask>
<path d="M28.1348 33.4434C27.6221 33.4434 27.2192 33.305 26.9263 33.0283C26.6333 32.7516 26.4909 32.3651 26.499 31.8687L26.731 18.1602C26.731 17.9486 26.6862 17.7655 26.5967 17.6108C26.5072 17.4481 26.3647 17.326 26.1694 17.2446C25.6323 17.0086 25.1929 16.7523 24.8511 16.4756C24.5174 16.1908 24.2773 15.8286 24.1309 15.3892C23.9844 14.9497 23.9274 14.3719 23.96 13.6558L24.2896 6.16064C24.3058 5.89209 24.3872 5.68457 24.5337 5.53809C24.6802 5.3916 24.8796 5.31836 25.1318 5.31836C25.376 5.31836 25.5632 5.39567 25.6934 5.55029C25.8317 5.69678 25.9009 5.90837 25.9009 6.18506L25.8154 13.4727C25.8154 13.9365 26.0433 14.1685 26.499 14.1685C26.7025 14.1685 26.8693 14.1115 26.9995 13.9976C27.1379 13.8755 27.207 13.7127 27.207 13.5093L27.3291 5.96533C27.3291 5.70492 27.4023 5.50146 27.5488 5.35498C27.6953 5.2085 27.8906 5.13525 28.1348 5.13525C28.387 5.13525 28.5824 5.2085 28.7207 5.35498C28.8672 5.50146 28.9445 5.70492 28.9526 5.96533L29.0747 13.5093C29.0747 13.7127 29.1398 13.8755 29.27 13.9976C29.4002 14.1115 29.5711 14.1685 29.7827 14.1685C29.978 14.1685 30.1367 14.1074 30.2588 13.9854C30.389 13.8633 30.4541 13.6924 30.4541 13.4727L30.3687 6.18506C30.3687 5.90837 30.4378 5.69678 30.5762 5.55029C30.7145 5.39567 30.9017 5.31836 31.1377 5.31836C31.6748 5.31836 31.9556 5.59912 31.98 6.16064L32.3218 13.6558C32.3462 14.3719 32.2852 14.9497 32.1387 15.3892C31.9922 15.8286 31.748 16.1908 31.4062 16.4756C31.0726 16.7523 30.6372 17.0086 30.1001 17.2446C29.9129 17.326 29.7705 17.4481 29.6729 17.6108C29.5833 17.7655 29.5386 17.9486 29.5386 18.1602L29.7827 31.8687C29.7827 32.3651 29.6362 32.7516 29.3433 33.0283C29.0503 33.305 28.6475 33.4434 28.1348 33.4434ZM37.6929 22.7988C37.701 22.5791 37.6522 22.3838 37.5464 22.2129C37.4487 22.0339 37.2941 21.867 37.0825 21.7124L36.3501 21.2241C36.049 21.0207 35.8211 20.7643 35.6665 20.4551C35.5119 20.1458 35.4346 19.7796 35.4346 19.3564V18.7583C35.4346 17.5376 35.5119 16.3169 35.6665 15.0962C35.8211 13.8755 36.0409 12.6995 36.3257 11.5684C36.6187 10.429 36.9645 9.3833 37.3633 8.43115C37.762 7.47087 38.2056 6.64486 38.6938 5.95312C38.8973 5.66829 39.0845 5.46077 39.2554 5.33057C39.4263 5.20036 39.6257 5.13525 39.8535 5.13525C40.0814 5.13525 40.2848 5.21257 40.4639 5.36719C40.6429 5.51367 40.7324 5.74154 40.7324 6.05078V31.9419C40.7324 32.4302 40.5819 32.8005 40.2808 33.0527C39.9797 33.3132 39.5728 33.4434 39.0601 33.4434C38.5555 33.4434 38.1527 33.3009 37.8516 33.0161C37.5505 32.7394 37.408 32.3366 37.4243 31.8076L37.6929 22.7988Z" fill="#707070"/>
<path d="M26.499 31.8687L26.1991 31.8636L26.1991 31.8637L26.499 31.8687ZM26.731 18.1602L27.031 18.1652V18.1602H26.731ZM26.5967 17.6108L26.3338 17.7555L26.3371 17.7612L26.5967 17.6108ZM26.1694 17.2446L26.0487 17.5193L26.054 17.5216L26.1694 17.2446ZM24.8511 16.4756L24.6562 16.7038L24.6623 16.7088L24.8511 16.4756ZM23.96 13.6558L24.2597 13.6694L24.2597 13.6689L23.96 13.6558ZM24.2896 6.16064L23.9901 6.14249L23.9898 6.14747L24.2896 6.16064ZM25.6934 5.55029L25.4639 5.74353L25.4694 5.75007L25.4753 5.75628L25.6934 5.55029ZM25.9009 6.18506L26.2009 6.18858V6.18506H25.9009ZM25.8154 13.4727L25.5154 13.4691V13.4727H25.8154ZM26.9995 13.9976L27.1971 14.2233L27.198 14.2225L26.9995 13.9976ZM27.207 13.5093L26.907 13.5044V13.5093H27.207ZM27.3291 5.96533L27.6291 5.97019V5.96533H27.3291ZM28.7207 5.35498L28.5025 5.56105L28.5086 5.56711L28.7207 5.35498ZM28.9526 5.96533L29.2526 5.96048L29.2525 5.95596L28.9526 5.96533ZM29.0747 13.5093L29.3747 13.5093L29.3747 13.5044L29.0747 13.5093ZM29.27 13.9976L29.0647 14.2165L29.0725 14.2233L29.27 13.9976ZM30.2588 13.9854L30.0535 13.7664L30.0467 13.7732L30.2588 13.9854ZM30.4541 13.4727L30.7541 13.4727L30.7541 13.4691L30.4541 13.4727ZM30.3687 6.18506H30.0686L30.0687 6.18858L30.3687 6.18506ZM30.5762 5.55029L30.7944 5.75635L30.7997 5.75033L30.5762 5.55029ZM31.98 6.16064L31.6803 6.17368L31.6803 6.17431L31.98 6.16064ZM32.3218 13.6558L32.6216 13.6455L32.6215 13.6421L32.3218 13.6558ZM31.4062 16.4756L31.5978 16.7065L31.5983 16.7061L31.4062 16.4756ZM30.1001 17.2446L30.2197 17.5198L30.2208 17.5193L30.1001 17.2446ZM29.6729 17.6108L29.4156 17.4565L29.4132 17.4605L29.6729 17.6108ZM29.5386 18.1602H29.2385L29.2386 18.1655L29.5386 18.1602ZM29.7827 31.8687L30.0828 31.8687L30.0827 31.8633L29.7827 31.8687ZM29.3433 33.0283L29.1373 32.8102L29.3433 33.0283ZM37.6929 22.7988L37.3931 22.7877L37.393 22.7899L37.6929 22.7988ZM37.5464 22.2129L37.283 22.3565L37.287 22.3638L37.2913 22.3708L37.5464 22.2129ZM37.0825 21.7124L37.2597 21.47L37.2489 21.4628L37.0825 21.7124ZM36.3501 21.2241L36.1821 21.4727L36.1837 21.4737L36.3501 21.2241ZM36.3257 11.5684L36.0351 11.4936L36.0348 11.4951L36.3257 11.5684ZM37.3633 8.43115L37.64 8.54704L37.6403 8.5462L37.3633 8.43115ZM38.6938 5.95312L38.4497 5.77875L38.4488 5.78012L38.6938 5.95312ZM40.4639 5.36719L40.2677 5.59431L40.2739 5.59937L40.4639 5.36719ZM40.2808 33.0527L40.0881 32.8227L40.0845 32.8258L40.2808 33.0527ZM37.8516 33.0161L38.0577 32.7981L38.0546 32.7952L37.8516 33.0161ZM37.4243 31.8076L37.7242 31.8168L37.7242 31.8166L37.4243 31.8076ZM28.1348 33.1434C27.677 33.1434 27.3555 33.0211 27.1323 32.8102L26.7203 33.2464C27.0829 33.5889 27.5672 33.7434 28.1348 33.7434V33.1434ZM27.1323 32.8102C26.9143 32.6044 26.7919 32.3068 26.799 31.8736L26.1991 31.8637C26.1899 32.4233 26.3523 32.8989 26.7203 33.2464L27.1323 32.8102ZM26.799 31.8737L27.0309 18.1652L26.431 18.1551L26.1991 31.8636L26.799 31.8737ZM27.031 18.1602C27.031 17.9056 26.9768 17.6686 26.8563 17.4605L26.3371 17.7612C26.3956 17.8623 26.431 17.9916 26.431 18.1602H27.031ZM26.8595 17.4663C26.7328 17.2358 26.5337 17.0714 26.2848 16.9677L26.054 17.5216C26.1958 17.5806 26.2815 17.6604 26.3338 17.7554L26.8595 17.4663ZM26.2901 16.97C25.7698 16.7414 25.3553 16.4978 25.0398 16.2424L24.6623 16.7088C25.0304 17.0068 25.4948 17.2759 26.0488 17.5193L26.2901 16.97ZM25.0459 16.2474C24.7561 16 24.5457 15.685 24.4155 15.2943L23.8463 15.484C24.009 15.9722 24.2788 16.3815 24.6563 16.7038L25.0459 16.2474ZM24.4155 15.2943C24.2852 14.9035 24.228 14.3667 24.2597 13.6694L23.6603 13.6421C23.6269 14.3771 23.6835 14.9959 23.8463 15.484L24.4155 15.2943ZM24.2597 13.6689L24.5893 6.17382L23.9898 6.14747L23.6603 13.6426L24.2597 13.6689ZM24.589 6.17879C24.6022 5.96101 24.6651 5.83096 24.7458 5.75022L24.3216 5.32595C24.1093 5.53818 24.0095 5.82317 23.9901 6.1425L24.589 6.17879ZM24.7458 5.75022C24.8242 5.67183 24.9407 5.61836 25.1318 5.61836V5.01836C24.8185 5.01836 24.5361 5.11138 24.3216 5.32595L24.7458 5.75022ZM25.1318 5.61836C25.3077 5.61836 25.4025 5.67067 25.4639 5.74353L25.9228 5.35705C25.7238 5.12067 25.4443 5.01836 25.1318 5.01836V5.61836ZM25.4753 5.75628C25.544 5.82908 25.6009 5.95599 25.6009 6.18506H26.2009C26.2009 5.86074 26.1194 5.56447 25.9115 5.34431L25.4753 5.75628ZM25.6009 6.18154L25.5155 13.4691L26.1154 13.4762L26.2009 6.18858L25.6009 6.18154ZM25.5154 13.4727C25.5154 13.7495 25.5835 14.0125 25.7723 14.2048C25.9622 14.398 26.2236 14.4685 26.499 14.4685V13.8685C26.3188 13.8685 26.2384 13.823 26.2003 13.7843C26.1613 13.7446 26.1154 13.6597 26.1154 13.4727H25.5154ZM26.499 14.4685C26.7616 14.4685 27.0028 14.3933 27.1971 14.2233L26.802 13.7718C26.7358 13.8297 26.6433 13.8685 26.499 13.8685V14.4685ZM27.198 14.2225C27.408 14.0372 27.507 13.7889 27.507 13.5093H26.907C26.907 13.6366 26.8678 13.7137 26.801 13.7726L27.198 14.2225ZM27.507 13.5141L27.6291 5.97019L27.0291 5.96048L26.9071 13.5044L27.507 13.5141ZM27.6291 5.96533C27.6291 5.76292 27.6843 5.64373 27.761 5.56711L27.3367 5.14285C27.1203 5.3592 27.0291 5.64692 27.0291 5.96533H27.6291ZM27.761 5.56711C27.8412 5.48685 27.9549 5.43525 28.1348 5.43525V4.83525C27.8263 4.83525 27.5494 4.93014 27.3367 5.14285L27.761 5.56711ZM28.1348 5.43525C28.3267 5.43525 28.4345 5.4889 28.5026 5.56097L28.9388 5.14899C28.7302 4.9281 28.4474 4.83525 28.1348 4.83525V5.43525ZM28.5086 5.56711C28.5881 5.64668 28.6464 5.77005 28.6528 5.9747L29.2525 5.95596C29.2426 5.63979 29.1462 5.35625 28.9328 5.14285L28.5086 5.56711ZM28.6527 5.97019L28.7747 13.5141L29.3747 13.5044L29.2526 5.96048L28.6527 5.97019ZM28.7747 13.5093C28.7747 13.7829 28.8654 14.0295 29.0648 14.2164L29.4752 13.7787C29.4142 13.7215 29.3747 13.6426 29.3747 13.5093H28.7747ZM29.0725 14.2233C29.2689 14.3952 29.5154 14.4685 29.7827 14.4685V13.8685C29.6269 13.8685 29.5316 13.8278 29.4676 13.7718L29.0725 14.2233ZM29.7827 14.4685C30.0462 14.4685 30.285 14.3834 30.4709 14.1975L30.0467 13.7732C29.9884 13.8315 29.9099 13.8685 29.7827 13.8685V14.4685ZM30.464 14.2042C30.6682 14.0128 30.7541 13.7548 30.7541 13.4727H30.1541C30.1541 13.63 30.1098 13.7138 30.0536 13.7665L30.464 14.2042ZM30.7541 13.4691L30.6686 6.18154L30.0687 6.18858L30.1541 13.4762L30.7541 13.4691ZM30.6687 6.18506C30.6687 5.95599 30.7255 5.82908 30.7943 5.75628L30.3581 5.34431C30.1501 5.56447 30.0687 5.86074 30.0687 6.18506H30.6687ZM30.7997 5.75033C30.8731 5.6684 30.974 5.61836 31.1377 5.61836V5.01836C30.8293 5.01836 30.556 5.12294 30.3526 5.35025L30.7997 5.75033ZM31.1377 5.61836C31.3555 5.61836 31.4724 5.6745 31.539 5.74106C31.6078 5.80985 31.67 5.93681 31.6803 6.17368L32.2797 6.14761C32.2656 5.82295 32.1752 5.52878 31.9632 5.3168C31.749 5.1026 31.457 5.01836 31.1377 5.01836V5.61836ZM31.6803 6.17431L32.0221 13.6694L32.6215 13.6421L32.2797 6.14698L31.6803 6.17431ZM32.022 13.666C32.0457 14.3638 31.9848 14.902 31.8541 15.2943L32.4233 15.484C32.5855 14.9974 32.6466 14.38 32.6216 13.6455L32.022 13.666ZM31.8541 15.2943C31.7245 15.6831 31.5113 15.9975 31.2142 16.2451L31.5983 16.7061C31.9848 16.384 32.2599 15.9741 32.4233 15.484L31.8541 15.2943ZM31.2147 16.2447C30.9086 16.4985 30.4994 16.7415 29.9794 16.97L30.2208 17.5193C30.7751 17.2757 31.2366 17.006 31.5978 16.7065L31.2147 16.2447ZM29.9805 16.9695C29.7405 17.0738 29.5479 17.236 29.4156 17.4565L29.9301 17.7652C29.9931 17.6602 30.0853 17.5782 30.2197 17.5197L29.9805 16.9695ZM29.4132 17.4605C29.2928 17.6686 29.2386 17.9056 29.2386 18.1602H29.8386C29.8386 17.9916 29.8739 17.8623 29.9325 17.7612L29.4132 17.4605ZM29.2386 18.1655L29.4828 31.874L30.0827 31.8633L29.8385 18.1548L29.2386 18.1655ZM29.4827 31.8687C29.4827 32.303 29.3568 32.6029 29.1373 32.8102L29.5492 33.2464C29.9157 32.9004 30.0827 32.4271 30.0827 31.8687H29.4827ZM29.1373 32.8102C28.914 33.0211 28.5926 33.1434 28.1348 33.1434V33.7434C28.7024 33.7434 29.1866 33.5889 29.5492 33.2464L29.1373 32.8102ZM37.9927 22.8099C38.0028 22.5365 37.9416 22.2813 37.8015 22.055L37.2913 22.3708C37.3628 22.4863 37.3992 22.6217 37.3931 22.7877L37.9927 22.8099ZM37.8098 22.0692C37.6858 21.842 37.497 21.6437 37.2595 21.4702L36.9055 21.9546C37.0912 22.0903 37.2117 22.2257 37.283 22.3565L37.8098 22.0692ZM37.2489 21.4628L36.5165 20.9745L36.1837 21.4737L36.9161 21.962L37.2489 21.4628ZM36.5181 20.9755C36.2574 20.7994 36.0652 20.5816 35.9348 20.3209L35.3982 20.5892C35.5771 20.947 35.8406 21.2419 36.1821 21.4727L36.5181 20.9755ZM35.9348 20.3209C35.8052 20.0616 35.7346 19.7433 35.7346 19.3564H35.1346C35.1346 19.8159 35.2186 20.23 35.3982 20.5892L35.9348 20.3209ZM35.7346 19.3564V18.7583H35.1346V19.3564H35.7346ZM35.7346 18.7583C35.7346 17.5503 35.8111 16.3422 35.9641 15.1339L35.3689 15.0585C35.2127 16.2916 35.1346 17.5249 35.1346 18.7583H35.7346ZM35.9641 15.1339C36.1173 13.9245 36.3349 12.7605 36.6166 11.6416L36.0348 11.4951C35.7468 12.6386 35.5249 13.8265 35.3689 15.0585L35.9641 15.1339ZM36.6162 11.6431C36.9061 10.5159 37.2475 9.48412 37.64 8.54704L37.0866 8.31526C36.6815 9.28248 36.3312 10.3422 36.0351 11.4936L36.6162 11.6431ZM37.6403 8.5462C38.0325 7.60192 38.4659 6.79624 38.9389 6.12613L38.4488 5.78012C37.9452 6.49348 37.4916 7.33981 37.0862 8.3161L37.6403 8.5462ZM38.938 6.1275C39.1335 5.85378 39.3004 5.67343 39.4372 5.5692L39.0736 5.09194C38.8686 5.24812 38.6611 5.48281 38.4497 5.77875L38.938 6.1275ZM39.4372 5.5692C39.5525 5.4813 39.6871 5.43525 39.8535 5.43525V4.83525C39.5642 4.83525 39.3 4.91942 39.0736 5.09194L39.4372 5.5692ZM39.8535 5.43525C40.0064 5.43525 40.141 5.48471 40.2678 5.59423L40.66 5.14014C40.4287 4.94042 40.1563 4.83525 39.8535 4.83525V5.43525ZM40.2739 5.59937C40.3616 5.67115 40.4324 5.79918 40.4324 6.05078H41.0324C41.0324 5.68389 40.9242 5.35619 40.6538 5.135L40.2739 5.59937ZM40.4324 6.05078V31.9419H41.0324V6.05078H40.4324ZM40.4324 31.9419C40.4324 32.3649 40.305 32.641 40.0881 32.8228L40.4734 33.2827C40.8587 32.9599 41.0324 32.4954 41.0324 31.9419H40.4324ZM40.0845 32.8258C39.8521 33.0268 39.5219 33.1434 39.0601 33.1434V33.7434C39.6236 33.7434 40.1072 33.5995 40.477 33.2796L40.0845 32.8258ZM39.0601 33.1434C38.6146 33.1434 38.2915 33.0193 38.0577 32.7982L37.6454 33.2341C38.0138 33.5825 38.4964 33.7434 39.0601 33.7434V33.1434ZM38.0546 32.7952C37.8354 32.5938 37.7097 32.2861 37.7242 31.8168L37.1245 31.7984C37.1063 32.3871 37.2655 32.885 37.6486 33.237L38.0546 32.7952ZM37.7242 31.8166L37.9927 22.8078L37.393 22.7899L37.1244 31.7987L37.7242 31.8166Z" fill="#5B5B5B" fill-opacity="0.3" mask="url(#path-2-inside-1_1738_4423)"/>
</g>
<g filter="url(#filter1_d_1738_4423)">
<path d="M21.0796 45.9453C21.909 45.9453 22.6284 46.0321 23.2378 46.2056C23.8472 46.3748 24.3169 46.6245 24.647 46.9546C24.9771 47.2847 25.1421 47.6761 25.1421 48.1289C25.1421 48.5732 24.9771 48.9583 24.647 49.2842C24.3169 49.6058 23.8472 49.8512 23.2378 50.0205C22.6284 50.1898 21.909 50.2744 21.0796 50.2744C20.2544 50.2744 19.535 50.1898 18.9214 50.0205C18.312 49.8512 17.8423 49.6058 17.5122 49.2842C17.1821 48.9583 17.0171 48.5732 17.0171 48.1289C17.0171 47.6761 17.1821 47.2847 17.5122 46.9546C17.8423 46.6245 18.312 46.3748 18.9214 46.2056C19.535 46.0321 20.2544 45.9453 21.0796 45.9453ZM15.8999 51.1504H26.272V52.1279H15.8999V51.1504ZM17.144 53.1436H25.0024V56.9395H17.144V53.1436ZM18.2612 48.1289C18.2612 48.3786 18.3734 48.5944 18.5977 48.7764C18.8219 48.9541 19.1457 49.0916 19.5688 49.189C19.992 49.2863 20.4956 49.335 21.0796 49.335C21.6593 49.335 22.1608 49.2863 22.584 49.189C23.0072 49.0916 23.3309 48.9541 23.5552 48.7764C23.7837 48.5944 23.8979 48.3786 23.8979 48.1289C23.8979 47.8708 23.7858 47.6507 23.5615 47.4688C23.3372 47.2826 23.0156 47.1408 22.5967 47.0435C22.182 46.9461 21.689 46.8975 21.1177 46.8975C20.2248 46.8975 19.5244 47.0054 19.0166 47.2212C18.5088 47.4328 18.257 47.7354 18.2612 48.1289ZM23.8345 55.9619V54.1084H18.3374V55.9619H23.8345ZM31.2739 47.3418C31.2739 47.8665 31.3861 48.368 31.6104 48.8462C31.8389 49.3201 32.1647 49.7391 32.5879 50.103C33.0153 50.467 33.5168 50.7441 34.0923 50.9346L33.4829 51.8867C32.827 51.6624 32.2578 51.3281 31.7754 50.8838C31.293 50.4395 30.9227 49.9168 30.6646 49.3159C30.4064 49.9591 30.0319 50.522 29.541 51.0044C29.0501 51.4826 28.4725 51.8402 27.8081 52.0771L27.1987 51.1377C27.7785 50.9303 28.2821 50.6341 28.7095 50.249C29.1369 49.8597 29.4648 49.4132 29.6934 48.9097C29.9219 48.4061 30.0382 47.8835 30.0425 47.3418V46.25H31.2739V47.3418ZM28.8618 53.0801H36.5679V57.0791H35.3618V54.0576H28.8618V53.0801ZM35.3618 45.7041H36.5679V52.5342H35.3618V45.7041ZM47.854 52.3311H46.6479V49.4746H44.5151V48.4717H46.6479V45.7041H47.854V52.3311ZM38.3833 51.3154C38.9546 51.1208 39.4539 50.8351 39.8813 50.4585C40.3088 50.0776 40.6367 49.6439 40.8652 49.1572C41.098 48.6663 41.2144 48.1628 41.2144 47.6465V47.3799H38.7515V46.3896H44.8833V47.3799H42.4458V47.6465C42.4416 48.1204 42.5495 48.5838 42.7695 49.0366C42.9896 49.4852 43.307 49.8893 43.7217 50.249C44.1364 50.6045 44.6252 50.8796 45.188 51.0742L44.5659 52.0264C43.9396 51.8063 43.3937 51.4805 42.9282 51.0488C42.4627 50.6172 42.103 50.1136 41.8491 49.5381C41.5994 50.1729 41.2292 50.7272 40.7383 51.2012C40.2516 51.6751 39.674 52.0306 39.0054 52.2676L38.3833 51.3154ZM40.3511 52.8643H47.854V56.9395H40.3511V52.8643ZM46.6733 55.9619V53.8164H41.5444V55.9619H46.6733Z" fill="#707070"/>
</g>
<defs>
<filter id="filter0_bii_1738_4423" x="-36.0898" y="-54.8652" width="136.822" height="148.309" filterUnits="userSpaceOnUse" color-interpolation-filters="sRGB">
<feFlood flood-opacity="0" result="BackgroundImageFix"/>
<feGaussianBlur in="BackgroundImageFix" stdDeviation="30"/>
<feComposite in2="SourceAlpha" operator="in" result="effect1_backgroundBlur_1738_4423"/>
<feBlend mode="normal" in="SourceGraphic" in2="effect1_backgroundBlur_1738_4423" result="shape"/>
<feColorMatrix in="SourceAlpha" type="matrix" values="0 0 0 0 0 0 0 0 0 0 0 0 0 0 0 0 0 0 127 0" result="hardAlpha"/>
<feOffset dx="-0.5" dy="-0.5"/>
<feGaussianBlur stdDeviation="5"/>
<feComposite in2="hardAlpha" operator="arithmetic" k2="-1" k3="1"/>
<feColorMatrix type="matrix" values="0 0 0 0 1 0 0 0 0 1 0 0 0 0 1 0 0 0 0.1 0"/>
<feBlend mode="normal" in2="shape" result="effect2_innerShadow_1738_4423"/>
<feColorMatrix in="SourceAlpha" type="matrix" values="0 0 0 0 0 0 0 0 0 0 0 0 0 0 0 0 0 0 127 0" result="hardAlpha"/>
<feOffset dx="0.5" dy="0.5"/>
<feGaussianBlur stdDeviation="5"/>
<feComposite in2="hardAlpha" operator="arithmetic" k2="-1" k3="1"/>
<feColorMatrix type="matrix" values="0 0 0 0 1 0 0 0 0 1 0 0 0 0 1 0 0 0 0.1 0"/>
<feBlend mode="normal" in2="effect2_innerShadow_1738_4423" result="effect3_innerShadow_1738_4423"/>
</filter>
<filter id="filter1_d_1738_4423" x="12.9004" y="42.7031" width="37.9531" height="17.375" filterUnits="userSpaceOnUse" color-interpolation-filters="sRGB">
<feFlood flood-opacity="0" result="BackgroundImageFix"/>
<feColorMatrix in="SourceAlpha" type="matrix" values="0 0 0 0 0 0 0 0 0 0 0 0 0 0 0 0 0 0 127 0" result="hardAlpha"/>
<feOffset/>
<feGaussianBlur stdDeviation="1.5"/>
<feComposite in2="hardAlpha" operator="out"/>
<feColorMatrix type="matrix" values="0 0 0 0 0 0 0 0 0 0 0 0 0 0 0 0 0 0 0.1 0"/>
<feBlend mode="normal" in2="BackgroundImageFix" result="effect1_dropShadow_1738_4423"/>
<feBlend mode="normal" in="SourceGraphic" in2="effect1_dropShadow_1738_4423" result="shape"/>
</filter>
</defs>
</svg>
